# Blender v2.81 (sub 16) OBJ File: 'finalMap.blend'
# www.blender.org
o Cube.029_Cube.036
v -10.195625 2.653121 -25.074509
v -8.541456 2.653121 -27.035480
v -10.195625 2.995308 -25.074509
v -8.234653 2.653121 -23.420338
v -6.580484 2.653121 -25.381310
v -8.234653 2.995308 -23.420338
v -6.580484 2.995308 -25.381310
v -8.541456 2.995308 -27.035480
vt 0.125000 0.500000
vt 0.375000 0.750000
vt 0.125000 0.750000
vt 0.625000 0.000000
vt 0.375000 0.250000
vt 0.375000 0.000000
vt 0.625000 0.750000
vt 0.375000 1.000000
vt 0.625000 0.500000
vt 0.375000 0.500000
vt 0.875000 0.500000
vt 0.625000 0.250000
vt 0.625000 1.000000
vt 0.875000 0.750000
vn 0.0000 -1.0000 -0.0000
vn -0.7644 0.0000 -0.6448
vn -0.6448 0.0000 0.7644
vn 0.7644 0.0000 0.6448
vn 0.0000 1.0000 0.0000
vn 0.6448 0.0000 -0.7644
s off
f 2/1/1 4/2/1 1/3/1
f 3/4/2 2/5/2 1/6/2
f 6/7/3 1/8/3 4/2/3
f 7/9/4 4/2/4 5/10/4
f 8/11/5 6/7/5 7/9/5
f 8/12/6 5/10/6 2/5/6
f 2/1/1 5/10/1 4/2/1
f 3/4/2 8/12/2 2/5/2
f 6/7/3 3/13/3 1/8/3
f 7/9/4 6/7/4 4/2/4
f 8/11/5 3/14/5 6/7/5
f 8/12/6 7/9/6 5/10/6
