# Blender v2.81 (sub 16) OBJ File: 'finalMap.blend'
# www.blender.org
o Cube.016_Cube.023
v 30.376484 13.082726 -6.756042
v 29.505007 13.029963 -5.886162
v 30.376484 12.160084 -5.938927
v 30.376484 16.288841 -6.561568
v 54.563293 13.082726 -6.756042
v 54.563293 12.160084 -5.938927
v 55.434769 13.029963 -5.886162
v 54.563293 16.288841 -6.561568
v 55.434769 16.236076 -5.691689
v 54.563293 17.105955 -5.638926
v 30.376484 17.105955 -5.638926
v 54.563293 16.911482 -2.432812
v 54.563293 16.157488 -2.080379
v 55.434769 16.085924 -3.216247
v 30.376484 16.911482 -2.432812
v 30.376484 16.157488 -2.080379
v 29.505007 16.085924 -3.216248
v 29.505007 13.005876 -5.489051
v 29.505007 16.236076 -5.691689
v 30.376484 12.160084 -5.938926
v 30.376484 12.808549 -4.551600
v 54.563293 12.808549 -4.551600
v 55.434769 13.005876 -5.489051
v 54.563293 12.160084 -5.938926
vt 0.133402 0.706030
vt 0.125000 0.543970
vt 0.133402 0.543970
vt 0.133402 0.750000
vt 0.125000 0.706030
vt 0.366598 0.706030
vt 0.366598 0.543970
vt 0.375000 0.706030
vt 0.366598 0.750000
vt 0.474159 0.706030
vt 0.366598 0.500000
vt 0.375000 0.543970
vt 0.567312 0.543970
vt 0.418970 0.491598
vt 0.581030 0.491598
vt 0.581030 0.258402
vt 0.418970 0.258402
vt 0.633402 0.536896
vt 0.866598 0.500000
vt 0.866598 0.536896
vt 0.625000 0.567887
vt 0.633402 0.500000
vt 0.875000 0.567887
vt 0.567312 0.206030
vt 0.866598 0.713104
vt 0.875000 0.729948
vt 0.521051 0.043970
vt 0.429557 0.206030
vt 0.474159 0.043970
vt 0.133402 0.500000
vt 0.500000 0.991598
vt 0.500000 1.000000
vt 0.500000 0.991598
vt 0.625000 0.991598
vt 0.557064 1.000000
vt 0.633402 0.750000
vt 0.633402 0.713104
vt 0.625000 0.729948
vt 0.500000 0.758402
vt 0.521051 0.706030
vt 0.500000 0.758402
vt 0.429557 0.543970
vt 0.866598 0.750000
vn -0.7071 0.0428 -0.7058
vn -0.5774 -0.5413 -0.6112
vn 0.0000 -0.6630 -0.7486
vn 0.0000 0.0605 -0.9982
vn 0.5774 -0.5413 -0.6112
vn 0.7071 0.0428 -0.7058
vn 0.5774 0.6112 -0.5413
vn 0.0000 0.7486 -0.6630
vn 0.7071 0.7058 0.0428
vn 0.0000 0.9982 0.0605
vn 0.0000 0.4234 0.9059
vn 0.7722 0.2690 0.5755
vn -0.7723 0.2690 0.5755
vn -0.7071 0.7058 0.0428
vn -0.7071 -0.4198 0.5690
vn -1.0000 0.0000 0.0000
vn -0.5773 0.6112 -0.5413
vn -0.8000 -0.6000 0.0000
vn -0.5512 -0.7559 0.3533
vn 0.0000 -0.9059 0.4234
vn 0.0000 -0.5938 0.8046
vn 0.7071 -0.4199 0.5690
vn 0.5512 -0.7559 0.3533
vn 0.7071 -0.7058 -0.0428
vn 0.0000 -1.0000 0.0000
vn 1.0000 0.0000 0.0000
vn -0.7071 -0.7058 -0.0428
vn 0.7071 -0.4198 0.5690
vn 0.7071 -0.7071 0.0000
s off
f 1/1/1 19/2/1 4/3/1
f 1/1/2 3/4/2 2/5/2
f 5/6/3 3/4/3 1/1/3
f 8/7/4 1/1/4 4/3/4
f 5/6/5 7/8/5 6/9/5
f 8/7/6 7/10/6 5/6/6
f 8/7/7 10/11/7 9/12/7
f 4/3/8 10/11/8 8/7/8
f 14/13/9 10/14/9 12/15/9
f 15/16/10 10/14/10 11/17/10
f 13/18/11 15/19/11 16/20/11
f 13/18/12 14/21/12 12/22/12
f 16/20/13 15/19/13 17/23/13
f 11/17/14 17/24/14 15/16/14
f 21/25/15 17/23/15 18/26/15
f 18/27/16 19/28/16 2/29/16
f 4/3/17 19/2/17 11/30/17
f 20/31/18 2/32/18 3/33/18
f 20/31/19 21/34/19 18/35/19
f 21/25/20 24/36/20 22/37/20
f 16/20/21 22/37/21 13/18/21
f 22/37/22 14/13/22 13/18/22
f 22/37/23 24/36/23 23/38/23
f 24/39/24 7/10/24 23/40/24
f 24/39/25 3/33/25 6/41/25
f 9/42/26 23/40/26 7/10/26
f 1/1/1 2/5/1 19/2/1
f 5/6/3 6/9/3 3/4/3
f 8/7/4 5/6/4 1/1/4
f 8/7/6 9/42/6 7/10/6
f 4/3/8 11/30/8 10/11/8
f 14/13/9 9/42/9 10/14/9
f 15/16/10 12/15/10 10/14/10
f 13/18/11 12/22/11 15/19/11
f 11/17/14 19/28/14 17/24/14
f 21/25/15 16/20/15 17/23/15
f 18/27/16 17/24/16 19/28/16
f 20/31/27 18/35/27 2/32/27
f 21/25/20 20/43/20 24/36/20
f 16/20/21 21/25/21 22/37/21
f 22/37/28 23/40/28 14/13/28
f 24/39/29 6/41/29 7/10/29
f 24/39/25 20/31/25 3/33/25
f 9/42/26 14/13/26 23/40/26
