# Blender v2.81 (sub 16) OBJ File: 'sw.blend'
# www.blender.org
o Cube.040_Cube.044
v -1.416107 6.106699 38.459866
v -3.098671 6.106699 39.760292
v -1.416107 8.233229 38.459866
v -2.716530 6.106699 36.777306
v -4.399094 6.106699 38.077728
v -2.716530 8.233229 36.777306
v -4.399094 8.233229 38.077728
v -3.098671 8.233229 39.760292
vt 0.910896 0.499147
vt 0.826595 0.582612
vt 0.826595 0.499146
vt 0.910896 0.499146
vt 0.989427 0.582612
vt 0.910896 0.582612
vt 0.910784 0.586205
vt 0.989314 0.669670
vt 0.910784 0.669670
vt 0.909966 0.704684
vt 0.988497 0.788149
vt 0.909966 0.788149
vt 0.905676 0.225823
vt 0.989977 0.309289
vt 0.905676 0.309289
vt 0.995545 0.493089
vt 0.917014 0.409624
vt 0.995545 0.409624
vt 0.910896 0.582612
vt 0.989427 0.499146
vt 0.989314 0.586204
vt 0.988497 0.704684
vt 0.989977 0.225823
vt 0.917014 0.493089
vn 0.0000 -1.0000 -0.0000
vn 0.6115 0.0000 0.7912
vn 0.7912 0.0000 -0.6115
vn -0.6115 0.0000 -0.7912
vn 0.0000 1.0000 -0.0000
vn -0.7912 0.0000 0.6115
s off
f 5/1/1 1/2/1 2/3/1
f 3/4/2 2/5/2 1/6/2
f 6/7/3 1/8/3 4/9/3
f 7/10/4 4/11/4 5/12/4
f 7/13/5 3/14/5 6/15/5
f 8/16/6 5/17/6 2/18/6
f 5/1/1 4/19/1 1/2/1
f 3/4/2 8/20/2 2/5/2
f 6/7/3 3/21/3 1/8/3
f 7/10/4 6/22/4 4/11/4
f 7/13/5 8/23/5 3/14/5
f 8/16/6 7/24/6 5/17/6
