# Blender v2.81 (sub 16) OBJ File: 'finalMap.blend'
# www.blender.org
o Cube.007_Cube.009
v -24.553490 7.146450 25.465759
v -14.862537 7.146450 25.465759
v -24.929873 -0.136854 25.969223
v -24.929873 7.322945 25.969223
v -14.486155 -0.136854 25.969223
v -14.486155 7.322945 25.969223
v -24.929873 13.457647 25.969223
v -14.486155 13.457647 25.969223
v -14.862537 -0.136854 25.465759
v -24.553490 -0.136854 25.465759
v -24.553490 12.872172 25.465759
v -14.862537 12.872172 25.465759
vt 0.483678 0.451264
vt 0.967357 1.000000
vt 0.483678 1.000000
vt 0.967357 0.000000
vt 0.967357 0.451263
vt 0.466247 0.535754
vt 0.017431 0.956933
vt 0.017431 0.535754
vt 0.466247 0.000000
vt 0.017431 0.000000
vt 0.483678 1.000000
vt 0.000000 1.000000
vt 0.967357 0.528960
vt 1.000000 0.000000
vt 1.000000 0.548736
vt 0.483678 0.000000
vt 0.466247 0.956933
vt 0.483678 0.548736
vt 0.000000 0.548736
vt 0.000000 0.000000
vt 0.483678 0.000000
vt 0.967357 0.019776
vn 0.0000 0.0000 1.0000
vn 0.0000 0.0000 -1.0000
vn 0.0000 0.6520 -0.7582
vn 0.0000 -1.0000 0.0000
vn -0.8009 0.0000 -0.5988
vn 0.8009 0.0000 -0.5988
s off
f 6/1/1 3/2/1 5/3/1
f 6/1/1 7/4/1 4/5/1
f 1/6/2 12/7/2 2/8/2
f 10/9/2 2/8/2 9/10/2
f 12/7/3 7/11/3 8/12/3
f 10/13/4 5/14/4 3/15/4
f 3/16/5 1/6/5 10/9/5
f 11/17/5 4/18/5 7/11/5
f 6/19/6 12/7/6 8/12/6
f 5/20/6 2/8/6 6/19/6
f 6/1/1 4/5/1 3/2/1
f 6/1/1 8/21/1 7/4/1
f 1/6/2 11/17/2 12/7/2
f 10/9/2 1/6/2 2/8/2
f 12/7/3 11/17/3 7/11/3
f 10/13/4 9/22/4 5/14/4
f 3/16/5 4/18/5 1/6/5
f 11/17/5 1/6/5 4/18/5
f 6/19/6 2/8/6 12/7/6
f 5/20/6 9/10/6 2/8/6
