# Blender v2.81 (sub 16) OBJ File: 'sw.blend'
# www.blender.org
o Cube.026_Cube.030
v -25.195839 1.377368 4.368467
v -23.279621 1.377368 2.575943
v -25.195839 4.001303 4.368467
v -23.403313 1.377368 6.284683
v -21.487097 1.377368 4.492159
v -23.403313 4.001303 6.284683
v -21.487097 4.001303 4.492159
v -23.279621 4.001303 2.575943
vt 0.415670 0.821559
vt 0.519600 0.719144
vt 0.519600 0.821559
vt 0.831129 0.089024
vt 0.904905 0.191438
vt 0.831129 0.191438
vt 0.679772 0.820441
vt 0.753548 0.922855
vt 0.679772 0.922855
vt 0.904905 0.293853
vt 0.831129 0.191438
vt 0.904905 0.191438
vt 0.623530 0.821559
vt 0.519600 0.719144
vt 0.623530 0.719144
vt 0.753548 0.820441
vt 0.827324 0.922855
vt 0.753548 0.922855
vt 0.415670 0.719144
vt 0.904905 0.089024
vt 0.753548 0.820441
vt 0.831129 0.293853
vt 0.519600 0.821559
vt 0.827324 0.820441
vn 0.0000 -1.0000 0.0000
vn -0.6831 0.0000 -0.7303
vn -0.7303 0.0000 0.6831
vn 0.6831 0.0000 0.7303
vn 0.0000 1.0000 0.0000
vn 0.7303 0.0000 -0.6831
s off
f 2/1/1 4/2/1 1/3/1
f 3/4/2 2/5/2 1/6/2
f 6/7/3 1/8/3 4/9/3
f 7/10/4 4/11/4 5/12/4
f 8/13/5 6/14/5 7/15/5
f 8/16/6 5/17/6 2/18/6
f 2/1/1 5/19/1 4/2/1
f 3/4/2 8/20/2 2/5/2
f 6/7/3 3/21/3 1/8/3
f 7/10/4 6/22/4 4/11/4
f 8/13/5 3/23/5 6/14/5
f 8/16/6 7/24/6 5/17/6
