# Blender v2.81 (sub 16) OBJ File: 'finalMap.blend'
# www.blender.org
o Cube.039_Cube.046
v 23.309591 10.718528 -35.453838
v 26.948744 10.718528 -33.314697
v 23.309591 11.281571 -35.453838
v 21.170454 10.718528 -31.814684
v 24.809607 10.718528 -29.675545
v 21.170454 11.281571 -31.814684
v 24.809607 11.281571 -29.675545
v 26.948744 11.281571 -33.314697
vt 0.125000 0.500000
vt 0.375000 0.750000
vt 0.125000 0.750000
vt 0.625000 0.000000
vt 0.375000 0.250000
vt 0.375000 0.000000
vt 0.625000 0.750000
vt 0.375000 1.000000
vt 0.625000 0.500000
vt 0.375000 0.500000
vt 0.875000 0.500000
vt 0.625000 0.250000
vt 0.625000 1.000000
vt 0.875000 0.750000
vn 0.0000 -1.0000 0.0000
vn 0.5068 0.0000 -0.8621
vn -0.8621 0.0000 -0.5067
vn -0.5067 0.0000 0.8621
vn 0.0000 1.0000 0.0000
vn 0.8621 0.0000 0.5067
vn 0.5067 0.0000 -0.8621
s off
f 2/1/1 4/2/1 1/3/1
f 3/4/2 2/5/2 1/6/2
f 6/7/3 1/8/3 4/2/3
f 7/9/4 4/2/4 5/10/4
f 8/11/5 6/7/5 7/9/5
f 8/12/6 5/10/6 2/5/6
f 2/1/1 5/10/1 4/2/1
f 3/4/7 8/12/7 2/5/7
f 6/7/3 3/13/3 1/8/3
f 7/9/4 6/7/4 4/2/4
f 8/11/5 3/14/5 6/7/5
f 8/12/6 7/9/6 5/10/6
