# Blender v2.81 (sub 16) OBJ File: 'sw.blend'
# www.blender.org
o Cube.032_Cube.036
v 29.239414 1.475218 24.312107
v 29.901997 1.475218 27.977381
v 29.239414 5.199899 24.312107
v 25.574141 1.475218 24.974689
v 26.236723 1.475218 28.639961
v 25.574141 5.199899 24.974689
v 26.236723 5.199899 28.639961
v 29.901997 5.199899 27.977381
vt 0.147655 0.313604
vt 0.000000 0.459796
vt 0.000000 0.313604
vt 0.295310 0.313604
vt 0.442120 0.459796
vt 0.295310 0.459796
vt 0.588930 0.459796
vt 0.442120 0.313604
vt 0.588930 0.313604
vt 0.146810 0.459796
vt 0.293620 0.605988
vt 0.146810 0.605988
vt 0.147655 0.313604
vt 0.295310 0.459796
vt 0.147655 0.459796
vt 0.146810 0.605988
vt 0.000000 0.459796
vt 0.146810 0.459796
vt 0.147655 0.459796
vt 0.442120 0.313604
vt 0.442120 0.459796
vt 0.293620 0.459796
vt 0.000000 0.605988
vn 0.0000 -1.0000 0.0000
vn 0.9841 0.0000 -0.1779
vn -0.1779 0.0000 -0.9841
vn -0.9841 0.0000 0.1779
vn 0.0000 1.0000 0.0000
vn 0.1779 0.0000 0.9841
s off
f 2/1/1 4/2/1 1/3/1
f 3/4/2 2/5/2 1/6/2
f 6/7/3 1/8/3 4/9/3
f 7/10/4 4/11/4 5/12/4
f 8/13/5 6/14/5 7/15/5
f 8/16/6 5/17/6 2/18/6
f 2/1/1 5/19/1 4/2/1
f 3/4/2 8/20/2 2/5/2
f 6/7/3 3/21/3 1/8/3
f 7/10/4 6/22/4 4/11/4
f 8/13/5 3/4/5 6/14/5
f 8/16/6 7/23/6 5/17/6
