# Blender v2.81 (sub 16) OBJ File: 'sw.blend'
# www.blender.org
o Cube.028_Cube.032
v -20.592449 1.548906 0.433165
v -18.568441 1.548906 -0.618361
v -20.592449 3.829765 0.433165
v -19.540924 1.548906 2.457174
v -17.516914 1.548906 1.405649
v -19.540924 3.829765 2.457174
v -17.516914 3.829765 1.405649
v -18.568441 3.829765 -0.618361
vt 0.825891 0.311856
vt 0.916233 0.400880
vt 0.825891 0.400880
vt 0.000000 0.838828
vt 0.078908 0.927852
vt 0.000000 0.927852
vt 0.119095 0.830278
vt 0.198003 0.919301
vt 0.119095 0.919301
vt 0.879794 0.710594
vt 0.958702 0.799618
vt 0.879794 0.799618
vt 0.921470 0.000000
vt 0.831129 0.089024
vt 0.831129 0.000000
vt 0.198003 0.830278
vt 0.276910 0.919301
vt 0.198003 0.919302
vt 0.916233 0.311856
vt 0.078908 0.838828
vt 0.198003 0.830278
vt 0.958702 0.710594
vt 0.921471 0.089024
vt 0.276910 0.830278
vn 0.0000 -1.0000 -0.0000
vn -0.4610 0.0000 -0.8874
vn -0.8874 0.0000 0.4610
vn 0.4610 0.0000 0.8874
vn 0.0000 1.0000 0.0000
vn 0.8874 0.0000 -0.4610
s off
f 2/1/1 4/2/1 1/3/1
f 3/4/2 2/5/2 1/6/2
f 6/7/3 1/8/3 4/9/3
f 7/10/4 4/11/4 5/12/4
f 8/13/5 6/14/5 7/15/5
f 8/16/6 5/17/6 2/18/6
f 2/1/1 5/19/1 4/2/1
f 3/4/2 8/20/2 2/5/2
f 6/7/3 3/21/3 1/8/3
f 7/10/4 6/22/4 4/11/4
f 8/13/5 3/23/5 6/14/5
f 8/16/6 7/24/6 5/17/6
