# Blender v2.81 (sub 16) OBJ File: 'finalMap.blend'
# www.blender.org
o Cube_Cube.010
v -24.929873 7.322945 18.509422
v -14.486155 7.322945 18.509422
v -24.929873 7.322945 3.875937
v -14.486155 7.322945 3.875937
v -24.929873 13.457647 18.509422
v -14.486155 13.457647 18.509422
v -19.708014 9.999314 18.509422
v -19.708014 9.999314 3.875937
v -14.862537 7.146450 3.875937
v -24.553490 7.146450 3.875937
v -19.708014 9.629911 3.875937
v -14.862537 7.146450 18.985476
v -24.553490 7.146450 18.985476
v -19.708014 9.629911 18.985476
v -24.553490 12.872172 25.465759
v -14.862537 12.872172 25.465759
v -14.862537 12.872172 18.985476
v -24.553490 12.872172 18.985476
vt 0.393629 0.000000
vt 0.196815 0.662350
vt 0.196814 0.000000
vt 0.114741 0.831175
vt 0.263006 0.662350
vt 0.263006 1.000000
vt 0.000000 0.662350
vt 0.196814 0.000000
vt 0.196814 0.662350
vt 0.469787 0.840554
vt 0.330785 0.683897
vt 0.576257 0.683897
vt 0.393629 0.683897
vt 0.576257 0.000000
vt 0.576257 0.683897
vt 0.758886 0.000000
vt 0.576257 0.683897
vt 0.576257 0.000000
vt 0.330785 0.997210
vt 0.576257 0.997210
vt 1.000000 0.000000
vt 0.758886 0.293315
vt 0.758886 0.000000
vt 0.873627 0.293315
vt 0.774723 0.462140
vt 0.758886 0.462140
vt 0.873627 0.630965
vt 0.393629 0.662350
vt 0.000000 1.000000
vt 0.000000 0.662350
vt 0.000000 0.000000
vt 0.393629 0.000000
vt 0.758886 0.683897
vt 1.000000 0.293315
vt 0.881193 0.305483
vt 0.881193 0.618796
vn 0.4561 0.8899 0.0000
vn 0.0000 0.0000 -1.0000
vn -0.4561 0.8899 0.0000
vn -0.0000 0.0000 1.0000
vn 0.4561 -0.8899 0.0000
vn -0.4561 -0.8899 0.0000
vn 0.0000 -1.0000 0.0000
s off
f 2/1/1 8/2/1 7/3/1
f 7/4/2 5/5/2 6/6/2
f 7/7/3 3/8/3 1/9/3
f 14/10/4 18/11/4 13/12/4
f 11/13/5 13/14/5 10/15/5
f 9/16/6 14/17/6 11/18/6
f 18/11/4 14/10/4 17/19/4
f 12/20/4 17/19/4 14/10/4
f 15/21/7 17/22/7 16/23/7
f 4/24/2 11/25/2 8/26/2
f 11/25/2 3/27/2 8/26/2
f 2/1/1 4/28/1 8/2/1
f 6/6/2 2/29/2 7/4/2
f 7/4/2 1/30/2 5/5/2
f 7/7/3 8/31/3 3/8/3
f 11/13/5 14/32/5 13/14/5
f 9/16/6 12/33/6 14/17/6
f 15/21/7 18/34/7 17/22/7
f 4/24/2 9/35/2 11/25/2
f 11/25/2 10/36/2 3/27/2
