# Blender v2.81 (sub 16) OBJ File: 'sw.blend'
# www.blender.org
o Cube.036_Cube.040
v 13.552794 4.113339 36.646961
v 12.542997 4.113339 39.273926
v 13.552794 6.927702 36.646961
v 10.925829 4.113339 35.637161
v 9.916031 4.113339 38.264130
v 10.925829 6.927702 35.637161
v 9.916031 6.927702 38.264130
v 12.542997 6.927702 39.273926
vt 0.406878 0.723174
vt 0.295310 0.833637
vt 0.295310 0.723174
vt 0.820461 0.110463
vt 0.731836 0.000000
vt 0.820461 0.000000
vt 0.821341 0.704684
vt 0.909966 0.815146
vt 0.821341 0.815146
vt 0.000000 0.733066
vt 0.088625 0.843528
vt 0.000000 0.843528
vt 0.588930 0.713282
vt 0.700498 0.823745
vt 0.588930 0.823745
vt 0.909086 0.110463
vt 0.820461 0.000000
vt 0.909086 0.000000
vt 0.406878 0.833637
vt 0.731836 0.110462
vt 0.909966 0.704684
vt 0.088625 0.733066
vt 0.700498 0.713282
vt 0.820461 0.110463
vn 0.0000 -1.0000 0.0000
vn 0.9334 0.0000 0.3588
vn 0.3588 0.0000 -0.9334
vn -0.9334 0.0000 -0.3588
vn 0.0000 1.0000 0.0000
vn -0.3588 0.0000 0.9334
s off
f 5/1/1 1/2/1 2/3/1
f 3/4/2 2/5/2 1/6/2
f 6/7/3 1/8/3 4/9/3
f 7/10/4 4/11/4 5/12/4
f 7/13/5 3/14/5 6/15/5
f 8/16/6 5/17/6 2/18/6
f 5/1/1 4/19/1 1/2/1
f 3/4/2 8/20/2 2/5/2
f 6/7/3 3/21/3 1/8/3
f 7/10/4 6/22/4 4/11/4
f 7/13/5 8/23/5 3/14/5
f 8/16/6 7/24/6 5/17/6
