# Blender v2.81 (sub 16) OBJ File: 'finalMap.blend'
# www.blender.org
o Cube.005_Cube.007
v -14.862537 7.146450 25.465759
v -14.486155 -0.136854 25.969223
v -14.486155 7.322945 25.969223
v -14.486155 -0.136854 18.509422
v -14.486155 7.322945 18.509422
v -14.486155 -0.136854 3.875937
v -14.486155 7.322945 3.875937
v -14.486155 13.457647 18.509422
v -14.486155 13.457647 25.969223
v -14.862537 -0.136854 3.875937
v -14.862537 7.146450 3.875937
v -14.862537 -0.136854 18.509422
v -14.862537 -0.136854 25.465759
v -14.862537 7.146450 18.985476
v -14.862537 12.872172 25.465759
v -14.862537 12.872172 18.985476
v -14.862540 2.296044 15.276944
v -14.486155 2.296044 15.276944
v -14.862540 5.391633 15.276944
v -14.486155 5.391633 15.276944
v -14.862539 5.391633 10.160504
v -14.486155 5.391633 10.160504
v -14.862539 2.296044 10.160504
v -14.486155 2.296044 10.160504
v -14.862539 2.296044 13.997835
v -14.486155 2.296044 13.997835
v -14.862537 2.296044 22.951603
v -14.862537 2.688850 22.951603
v -14.486156 2.296044 22.951603
v -14.862540 5.391633 17.835163
v -14.486155 5.391633 17.835163
v -14.862537 2.296044 21.672493
v -14.486156 2.296044 21.672493
v -14.486156 5.391633 22.951603
v -14.862539 5.391633 22.951603
v -14.486156 5.391633 21.672493
v -14.862539 5.391633 21.672493
v -14.862539 2.296044 11.439615
v -14.486155 2.296044 11.439615
v -14.862540 5.391633 13.997835
v -14.486155 5.391633 13.997835
v -14.862540 5.391633 11.439615
v -14.486155 5.391633 11.439615
v -14.486155 5.391633 18.509422
v -14.486155 2.296044 18.509422
v -14.862537 2.296044 19.114273
v -14.486156 2.296044 19.114273
v -14.862537 5.391633 19.114273
v -14.486156 5.391633 19.114273
v -14.862540 2.296044 17.835163
v -14.486155 2.296044 17.835163
v -14.486155 8.280681 22.951603
v -14.862537 8.280681 22.951603
v -14.486155 8.280681 21.672493
v -14.862537 8.280681 21.672493
v -14.486155 10.976053 22.951603
v -14.862537 10.650764 22.951603
v -14.486155 11.376268 22.951603
v -14.862537 11.376268 22.951603
v -14.486155 9.924154 21.672493
v -14.486155 11.376268 21.672493
v -14.862537 11.376268 21.672493
vt 0.090535 0.617301
vt 0.205731 0.720934
vt 0.090535 0.720934
vt 0.277601 0.592799
vt 0.205731 0.461852
vt 0.205731 0.410036
vt 0.989995 0.592799
vt 1.000000 0.000000
vt 1.000000 0.592799
vt 0.313241 0.720934
vt 0.313241 0.772751
vt 0.277601 0.894994
vt 0.711623 0.257297
vt 0.596427 0.257297
vt 0.711623 0.153664
vt 0.776924 0.000000
vt 0.819133 0.153664
vt 0.776924 0.262515
vt 0.525901 1.000000
vt 0.535905 0.874598
vt 0.535905 1.000000
vt 0.645955 0.926415
vt 0.635951 0.874598
vt 0.645955 0.874598
vt 0.515896 0.874598
vt 0.505891 1.000000
vt 0.505891 0.874598
vt 0.625946 0.874599
vt 0.635951 0.874598
vt 0.635951 0.901913
vt 0.655960 0.874598
vt 0.645955 0.926415
vt 0.645955 0.874598
vt 0.515896 1.000000
vt 0.525901 0.874598
vt 0.525901 1.000000
vt 0.595932 1.000000
vt 0.605937 0.874598
vt 0.605937 1.000000
vt 0.705982 0.874598
vt 0.695978 0.926415
vt 0.695978 0.874598
vt 0.605937 0.926415
vt 0.615941 0.874598
vt 0.615941 0.926415
vt 0.575923 1.000000
vt 0.565919 0.874598
vt 0.575923 0.874598
vt 0.555914 0.984088
vt 0.555914 0.874598
vt 0.565919 0.874598
vt 0.090535 0.410036
vt 0.090535 0.461852
vt 0.000000 0.592799
vt 0.625946 0.899101
vt 0.625946 0.926415
vt 0.615941 0.926415
vt 0.205731 0.592799
vt 0.205731 0.617301
vt 0.535905 1.000000
vt 0.545910 0.874598
vt 0.545910 1.000000
vt 0.545910 1.000000
vt 0.555914 0.874598
vt 0.555914 1.000000
vt 0.665964 0.926415
vt 0.675969 0.874598
vt 0.675969 0.926415
vt 0.665964 0.874598
vt 0.655960 0.926415
vt 0.655960 0.874598
vt 0.596427 0.568196
vt 0.596427 0.620012
vt 0.505891 0.874598
vt 0.685973 0.926415
vt 0.695978 0.874598
vt 0.695978 0.926415
vt 0.989995 0.000000
vt 0.934328 0.153664
vt 0.934328 0.101848
vt 0.675969 0.926415
vt 0.685973 0.874598
vt 0.685973 0.926415
vt 0.575923 0.874598
vt 0.585928 0.874599
vt 0.585928 0.890811
vt 0.595932 1.000000
vt 0.585928 1.000000
vt 0.585928 0.933423
vt 0.505891 0.894994
vt 0.428437 0.720934
vt 0.505891 0.592799
vt 1.000000 0.894994
vt 0.989995 0.599949
vt 1.000000 0.592799
vt 0.000000 0.894994
vt 0.090535 0.592799
vt 0.090535 0.772751
vt 0.277601 0.000000
vt 0.205731 0.306403
vt 0.205731 0.565485
vt 0.090535 0.565485
vt 0.205731 0.254586
vt 0.090535 0.306403
vt 0.989995 0.000000
vt 0.374400 0.720934
vt 0.413544 0.772751
vt 0.776924 0.874598
vt 0.711623 0.568196
vt 0.711623 0.620012
vt 0.596427 0.464563
vt 0.611044 0.101848
vt 0.505891 0.000000
vt 0.711623 0.101848
vt 0.711623 0.464563
vt 0.711623 0.412746
vt 0.596427 0.412746
vt 0.596427 0.309114
vt 0.711623 0.309114
vt 0.596427 0.153664
vt 0.907330 0.101848
vt 0.819133 0.101848
vt 0.989995 0.262515
vt 0.525901 0.874598
vt 0.635951 0.926415
vt 0.515896 1.000000
vt 0.635951 0.926415
vt 0.625946 0.926415
vt 0.655960 0.926415
vt 0.515896 0.874598
vt 0.595932 0.874598
vt 0.705982 0.926415
vt 0.605937 0.874598
vt 0.565919 1.000000
vt 0.565919 1.000000
vt 0.555914 1.000000
vt 0.000000 0.000000
vt 0.090535 0.254586
vt 0.615942 0.874598
vt 0.625946 0.874599
vt 0.205731 0.772751
vt 0.535905 0.874598
vt 0.545910 0.874598
vt 0.665964 0.874598
vt 0.665964 0.926415
vt 0.505891 0.281800
vt 0.596427 0.101848
vt 0.685973 0.874598
vt 0.675969 0.874598
vt 0.585928 1.000000
vt 0.575923 0.903988
vt 0.575923 1.000000
vt 0.585928 0.874598
vt 0.595932 0.874598
vt 0.428437 0.772751
vt 0.989995 0.894994
vn 1.0000 0.0000 0.0000
vn 0.0000 -1.0000 0.0000
vn -1.0000 0.0000 -0.0000
vn 0.0000 0.0000 1.0000
vn 0.0000 0.0000 -1.0000
vn 0.0000 1.0000 0.0000
s off
f 47/1/1 36/2/1 33/3/1
f 5/4/1 20/5/1 41/6/1
f 12/7/2 6/8/2 4/9/2
f 54/10/1 52/11/1 3/12/1
f 48/13/3 46/14/3 37/15/3
f 1/16/3 55/17/3 14/18/3
f 26/19/4 40/20/4 25/21/4
f 43/22/2 21/23/2 22/24/2
f 38/25/5 43/26/5 39/27/5
f 30/28/2 31/29/2 44/30/2
f 18/31/6 25/32/6 17/33/6
f 17/34/5 20/35/5 18/36/5
f 46/37/5 49/38/5 47/39/5
f 29/40/6 32/41/6 27/42/6
f 19/43/2 41/44/2 20/45/2
f 32/46/4 36/47/4 37/48/4
f 28/49/5 35/50/5 34/51/5
f 26/52/1 18/53/1 4/54/1
f 45/55/6 51/56/6 50/57/6
f 44/58/1 5/4/1 49/59/1
f 51/60/4 30/61/4 50/62/4
f 24/63/4 21/64/4 23/65/4
f 35/66/2 36/67/2 34/68/2
f 39/69/6 23/70/6 38/71/6
f 38/72/3 23/73/3 10/74/3
f 59/75/2 61/76/2 58/77/2
f 15/78/3 62/79/3 59/80/3
f 55/81/6 52/82/6 54/83/6
f 59/84/5 58/85/5 56/86/5
f 55/87/4 54/88/4 60/89/4
f 9/90/1 61/91/1 8/92/1
f 6/93/5 11/94/5 7/95/5
f 2/96/1 4/54/1 33/3/1
f 4/54/1 45/97/1 47/1/1
f 47/1/1 49/59/1 36/2/1
f 4/54/1 47/1/1 33/3/1
f 33/3/1 29/98/1 2/96/1
f 7/99/1 5/4/1 43/100/1
f 5/4/1 44/58/1 31/101/1
f 31/101/1 51/102/1 18/53/1
f 5/4/1 31/101/1 20/5/1
f 43/100/1 22/103/1 7/99/1
f 26/52/1 39/104/1 43/100/1
f 41/6/1 26/52/1 43/100/1
f 31/101/1 18/53/1 20/5/1
f 41/6/1 43/100/1 5/4/1
f 12/7/2 10/105/2 6/8/2
f 5/4/1 60/106/1 54/10/1
f 52/11/1 56/107/1 3/12/1
f 56/107/1 9/90/1 3/12/1
f 5/4/1 54/10/1 3/12/1
f 14/18/3 11/108/3 42/109/3
f 11/108/3 21/110/3 42/109/3
f 42/109/3 38/72/3 25/111/3
f 28/112/3 13/113/3 1/16/3
f 35/114/3 28/112/3 1/16/3
f 1/16/3 14/18/3 37/15/3
f 14/18/3 42/109/3 40/115/3
f 42/109/3 25/111/3 40/115/3
f 19/116/3 17/117/3 50/118/3
f 14/18/3 40/115/3 19/116/3
f 19/116/3 50/118/3 30/119/3
f 14/18/3 19/116/3 30/119/3
f 37/15/3 35/114/3 1/16/3
f 46/14/3 32/120/3 37/15/3
f 30/119/3 48/13/3 14/18/3
f 14/18/3 48/13/3 37/15/3
f 1/16/3 15/78/3 57/121/3
f 1/16/3 57/121/3 53/122/3
f 62/79/3 16/123/3 14/18/3
f 1/16/3 53/122/3 55/17/3
f 55/17/3 62/79/3 14/18/3
f 26/19/4 41/124/4 40/20/4
f 43/22/2 42/125/2 21/23/2
f 38/25/5 42/126/5 43/26/5
f 44/30/2 49/127/2 48/128/2
f 48/128/2 30/28/2 44/30/2
f 18/31/6 26/129/6 25/32/6
f 17/34/5 19/130/5 20/35/5
f 46/37/5 48/131/5 49/38/5
f 29/40/6 33/132/6 32/41/6
f 19/43/2 40/133/2 41/44/2
f 32/46/4 33/134/4 36/47/4
f 34/51/5 29/135/5 28/49/5
f 29/135/5 27/136/5 28/49/5
f 6/137/1 7/99/1 24/138/1
f 7/99/1 22/103/1 24/138/1
f 24/138/1 39/104/1 6/137/1
f 39/104/1 26/52/1 4/54/1
f 6/137/1 39/104/1 4/54/1
f 45/97/1 4/54/1 51/102/1
f 51/102/1 4/54/1 18/53/1
f 50/57/6 46/139/6 45/55/6
f 46/139/6 47/140/6 45/55/6
f 3/12/1 2/96/1 29/98/1
f 34/141/1 36/2/1 3/12/1
f 36/2/1 49/59/1 5/4/1
f 3/12/1 36/2/1 5/4/1
f 3/12/1 29/98/1 34/141/1
f 51/60/4 31/142/4 30/61/4
f 24/63/4 22/143/4 21/64/4
f 35/66/2 37/144/2 36/67/2
f 39/69/6 24/145/6 23/70/6
f 23/73/3 21/110/3 11/108/3
f 10/74/3 12/146/3 38/72/3
f 12/146/3 13/113/3 32/120/3
f 13/113/3 28/112/3 27/147/3
f 32/120/3 46/14/3 12/146/3
f 46/14/3 50/118/3 12/146/3
f 12/146/3 50/118/3 17/117/3
f 13/113/3 27/147/3 32/120/3
f 23/73/3 11/108/3 10/74/3
f 17/117/3 25/111/3 12/146/3
f 25/111/3 38/72/3 12/146/3
f 59/75/2 62/148/2 61/76/2
f 15/78/3 16/123/3 62/79/3
f 59/80/3 57/121/3 15/78/3
f 55/81/6 53/149/6 52/82/6
f 56/86/5 52/150/5 57/151/5
f 52/150/5 53/152/5 57/151/5
f 57/151/5 59/84/5 56/86/5
f 60/89/4 61/153/4 62/154/4
f 62/154/4 55/87/4 60/89/4
f 9/90/1 56/107/1 58/155/1
f 61/91/1 60/106/1 8/92/1
f 60/106/1 5/4/1 8/92/1
f 9/90/1 58/155/1 61/91/1
f 6/93/5 10/156/5 11/94/5
