# Blender v2.81 (sub 16) OBJ File: 'sw.blend'
# www.blender.org
o Cube.037_Cube.041
v 9.535002 4.665207 37.948212
v 8.269106 4.665207 40.246593
v 9.535002 7.289141 37.948212
v 7.236626 4.665207 36.682320
v 5.970730 4.665207 38.980698
v 7.236626 7.289141 36.682320
v 5.970730 7.289141 38.980698
v 8.269106 7.289141 40.246593
vt 0.119197 0.724468
vt 0.223215 0.827456
vt 0.119197 0.827456
vt 0.910784 0.689193
vt 0.836944 0.586204
vt 0.910784 0.586204
vt 0.584736 0.826162
vt 0.510897 0.723174
vt 0.584736 0.723174
vt 0.831837 0.136300
vt 0.905676 0.239289
vt 0.831837 0.239289
vt 0.406878 0.826162
vt 0.510897 0.723174
vt 0.510897 0.826162
vt 0.662769 0.926733
vt 0.588930 0.823745
vt 0.662769 0.823745
vt 0.223215 0.724468
vt 0.836944 0.689193
vt 0.510897 0.826162
vt 0.905676 0.136300
vt 0.406878 0.723174
vt 0.588930 0.926733
vn 0.0000 -1.0000 0.0000
vn 0.8759 0.0000 0.4824
vn 0.4824 0.0000 -0.8759
vn -0.8759 0.0000 -0.4824
vn 0.0000 1.0000 -0.0000
vn -0.4824 0.0000 0.8759
s off
f 5/1/1 1/2/1 2/3/1
f 3/4/2 2/5/2 1/6/2
f 6/7/3 1/8/3 4/9/3
f 7/10/4 4/11/4 5/12/4
f 7/13/5 3/14/5 6/15/5
f 8/16/6 5/17/6 2/18/6
f 5/1/1 4/19/1 1/2/1
f 3/4/2 8/20/2 2/5/2
f 6/7/3 3/21/3 1/8/3
f 7/10/4 6/22/4 4/11/4
f 7/13/5 8/23/5 3/14/5
f 8/16/6 7/24/6 5/17/6
