# Blender v2.81 (sub 16) OBJ File: 'sw.blend'
# www.blender.org
o Cube.029_Cube.033
v -18.196342 1.626071 -0.876574
v -16.193464 1.626071 -1.591133
v -18.196342 3.752600 -0.876574
v -17.481783 1.626071 1.126305
v -15.478904 1.626071 0.411745
v -17.481783 3.752600 1.126305
v -15.478904 3.752600 0.411745
v -16.193464 3.752600 -1.591133
vt 0.896233 0.592775
vt 0.980462 0.675775
vt 0.896233 0.675775
vt 0.913651 0.457234
vt 0.992115 0.540234
vt 0.913651 0.540234
vt 0.916233 0.311856
vt 0.994697 0.394857
vt 0.916233 0.394857
vt 0.983369 0.255025
vt 0.904905 0.172024
vt 0.983369 0.172024
vt 0.988982 0.820441
vt 0.904753 0.903441
vt 0.904753 0.820441
vt 0.904905 0.089024
vt 0.904905 0.172024
vt 0.980461 0.592775
vt 0.992115 0.457234
vt 0.994697 0.311856
vt 0.904905 0.255025
vt 0.988982 0.903441
vt 0.983369 0.089024
vn 0.0000 -1.0000 -0.0000
vn -0.3360 0.0000 -0.9419
vn -0.9419 0.0000 0.3360
vn 0.3360 0.0000 0.9419
vn 0.0000 1.0000 0.0000
vn 0.9419 0.0000 -0.3360
s off
f 2/1/1 4/2/1 1/3/1
f 3/4/2 2/5/2 1/6/2
f 6/7/3 1/8/3 4/9/3
f 7/10/4 4/11/4 5/12/4
f 8/13/5 6/14/5 7/15/5
f 8/16/6 5/12/6 2/17/6
f 2/1/1 5/18/1 4/2/1
f 3/4/2 8/19/2 2/5/2
f 6/7/3 3/20/3 1/8/3
f 7/10/4 6/21/4 4/11/4
f 8/13/5 3/22/5 6/14/5
f 8/16/6 7/23/6 5/12/6
