# Blender v2.81 (sub 16) OBJ File: 'sw.blend'
# www.blender.org
o Cube.021_Cube.025
v -32.092148 0.826995 22.199333
v -31.585466 0.826995 18.509277
v -32.092148 4.551676 22.199333
v -28.402090 0.826995 22.706013
v -27.895409 0.826995 19.015957
v -28.402090 4.551676 22.706013
v -27.895409 4.551676 19.015957
v -31.585466 4.551676 18.509277
vt 0.000000 0.311856
vt 0.147529 0.457234
vt 0.000000 0.457234
vt 0.295058 0.311856
vt 0.441744 0.457234
vt 0.295059 0.457234
vt 0.146685 0.457234
vt 0.293370 0.602611
vt 0.146685 0.602611
vt 0.588429 0.457234
vt 0.441744 0.311856
vt 0.588429 0.311856
vt 0.147529 0.457234
vt 0.295058 0.311856
vt 0.295058 0.457234
vt 0.000000 0.457234
vt 0.146685 0.602611
vt 0.000000 0.602611
vt 0.147529 0.311856
vt 0.441744 0.311856
vt 0.293370 0.457234
vt 0.441744 0.457234
vt 0.147529 0.311856
vt 0.146685 0.457234
vn 0.0000 -1.0000 0.0000
vn -0.9907 0.0000 -0.1360
vn -0.1360 0.0000 0.9907
vn 0.9907 0.0000 0.1360
vn 0.0000 1.0000 0.0000
vn 0.1360 0.0000 -0.9907
s off
f 5/1/1 1/2/1 2/3/1
f 3/4/2 2/5/2 1/6/2
f 6/7/3 1/8/3 4/9/3
f 7/10/4 4/11/4 5/12/4
f 8/13/5 6/14/5 7/15/5
f 8/16/6 5/17/6 2/18/6
f 5/1/1 4/19/1 1/2/1
f 3/4/2 8/20/2 2/5/2
f 6/7/3 3/21/3 1/8/3
f 7/10/4 6/22/4 4/11/4
f 8/13/5 3/23/5 6/14/5
f 8/16/6 7/24/6 5/17/6
