# Blender v2.81 (sub 16) OBJ File: 'finalMap.blend'
# www.blender.org
o Cube.026_Cube.033
v -12.634677 0.918947 -17.321812
v -12.023457 0.918947 -19.445042
v -12.634677 1.213648 -17.321812
v -10.511447 0.918947 -16.710590
v -9.900227 0.918947 -18.833820
v -10.511447 1.213648 -16.710590
v -9.900227 1.213648 -18.833820
v -12.023457 1.213648 -19.445042
vt 0.375000 0.500000
vt 0.125000 0.750000
vt 0.125000 0.500000
vt 0.625000 0.000000
vt 0.375000 0.250000
vt 0.375000 0.000000
vt 0.625000 0.750000
vt 0.375000 1.000000
vt 0.375000 0.750000
vt 0.625000 0.500000
vt 0.875000 0.500000
vt 0.625000 0.250000
vt 0.625000 1.000000
vt 0.875000 0.750000
vn 0.0000 -1.0000 0.0000
vn -0.9610 0.0000 -0.2766
vn -0.2766 0.0000 0.9610
vn 0.9610 0.0000 0.2766
vn 0.0000 1.0000 0.0000
vn 0.2766 0.0000 -0.9610
s off
f 5/1/1 1/2/1 2/3/1
f 3/4/2 2/5/2 1/6/2
f 6/7/3 1/8/3 4/9/3
f 7/10/4 4/9/4 5/1/4
f 8/11/5 6/7/5 7/10/5
f 8/12/6 5/1/6 2/5/6
f 5/1/1 4/9/1 1/2/1
f 3/4/2 8/12/2 2/5/2
f 6/7/3 3/13/3 1/8/3
f 7/10/4 6/7/4 4/9/4
f 8/11/5 3/14/5 6/7/5
f 8/12/6 7/10/6 5/1/6
