# Blender v2.81 (sub 16) OBJ File: 'sw.blend'
# www.blender.org
o Cube.018_Cube.022
v -12.022153 4.849152 13.666443
v -11.635792 5.532575 15.642746
v -14.112354 5.035435 14.010651
v -12.084655 2.844069 14.372036
v -11.698294 3.527493 16.348339
v -14.174856 3.030353 14.716244
v -13.788496 3.713776 16.692547
v -13.725994 5.718858 15.986954
vt 0.910896 0.499147
vt 0.826595 0.582612
vt 0.826595 0.499146
vt 0.910896 0.499146
vt 0.989427 0.582612
vt 0.910896 0.582612
vt 0.910784 0.586205
vt 0.989314 0.669670
vt 0.910784 0.669670
vt 0.909966 0.704684
vt 0.988497 0.788149
vt 0.909966 0.788149
vt 0.905676 0.225823
vt 0.989977 0.309289
vt 0.905676 0.309289
vt 0.995545 0.493089
vt 0.917014 0.409624
vt 0.995545 0.409624
vt 0.910896 0.582612
vt 0.989427 0.499146
vt 0.989314 0.586204
vt 0.988497 0.704684
vt 0.989977 0.225823
vt 0.917014 0.493089
vn 0.9829 -0.0876 -0.1619
vn 0.0294 0.9429 -0.3318
vn -0.1817 -0.3214 -0.9294
vn -0.0294 -0.9429 0.3318
vn -0.9829 0.0876 0.1619
vn 0.1817 0.3214 0.9294
s off
f 5/1/1 1/2/1 2/3/1
f 3/4/2 2/5/2 1/6/2
f 6/7/3 1/8/3 4/9/3
f 7/10/4 4/11/4 5/12/4
f 7/13/5 3/14/5 6/15/5
f 8/16/6 5/17/6 2/18/6
f 5/1/1 4/19/1 1/2/1
f 3/4/2 8/20/2 2/5/2
f 6/7/3 3/21/3 1/8/3
f 7/10/4 6/22/4 4/11/4
f 7/13/5 8/23/5 3/14/5
f 8/16/6 7/24/6 5/17/6
