# Blender v2.81 (sub 16) OBJ File: 'sw.blend'
# www.blender.org
o Cube.038_Cube.042
v 5.658854 5.179734 38.640572
v 4.198084 5.179734 40.602959
v 5.658854 7.626124 38.640572
v 3.696461 5.179734 37.179802
v 2.235693 5.179734 39.142193
v 3.696461 7.626124 37.179802
v 2.235693 7.626124 39.142193
v 4.198084 7.626124 40.602959
vt 0.821341 0.815146
vt 0.918322 0.911166
vt 0.821341 0.911166
vt 0.196692 0.827456
vt 0.274186 0.923476
vt 0.196692 0.923476
vt 0.484373 0.922182
vt 0.406878 0.826162
vt 0.484373 0.826162
vt 0.196692 0.923476
vt 0.119197 0.827456
vt 0.196692 0.827456
vt 0.826596 0.409624
vt 0.923576 0.313604
vt 0.923576 0.409624
vt 0.561868 0.922182
vt 0.484373 0.826162
vt 0.561868 0.826162
vt 0.918321 0.815146
vt 0.274186 0.827456
vt 0.406878 0.922182
vt 0.119197 0.923476
vt 0.826595 0.313604
vt 0.484373 0.922182
vn 0.0000 -1.0000 0.0000
vn 0.8022 0.0000 0.5971
vn 0.5971 0.0000 -0.8022
vn -0.8022 0.0000 -0.5971
vn 0.0000 1.0000 0.0000
vn -0.5971 0.0000 0.8022
s off
f 5/1/1 1/2/1 2/3/1
f 3/4/2 2/5/2 1/6/2
f 6/7/3 1/8/3 4/9/3
f 7/10/4 4/11/4 5/12/4
f 7/13/5 3/14/5 6/15/5
f 8/16/6 5/17/6 2/18/6
f 5/1/1 4/19/1 1/2/1
f 3/4/2 8/20/2 2/5/2
f 6/7/3 3/21/3 1/8/3
f 7/10/4 6/22/4 4/11/4
f 7/13/5 8/23/5 3/14/5
f 8/16/6 7/24/6 5/17/6
