# Blender v2.81 (sub 16) OBJ File: 'finalMap.blend'
# www.blender.org
o Cube.021_Cube.028
v 23.955032 5.870776 6.183527
v 23.083555 5.009179 6.314390
v 23.955032 4.878316 5.452793
v 23.955032 6.353095 9.359116
v 48.141838 5.870776 6.183527
v 48.141838 4.878316 5.452793
v 49.013317 5.009179 6.314390
v 48.141838 6.353095 9.359116
v 49.013317 5.491498 9.489977
v 48.141838 5.622360 10.351574
v 23.955032 5.622360 10.351574
v 48.141838 2.446773 10.833893
v 48.141838 1.944032 10.170591
v 49.013317 3.039624 9.862375
v 23.955032 2.446773 10.833893
v 23.955032 1.944032 10.170591
v 23.083555 3.039624 9.862375
v 23.083555 4.615849 6.374130
v 23.083555 5.491498 9.489977
v 23.955032 4.878316 5.452793
v 23.955032 3.657863 6.377819
v 48.141838 3.657863 6.377819
v 49.013317 4.615849 6.374130
v 48.141838 4.878316 5.452793
vt 0.133402 0.706030
vt 0.125000 0.543970
vt 0.133402 0.543970
vt 0.133402 0.750000
vt 0.125000 0.706030
vt 0.366598 0.706030
vt 0.366598 0.543970
vt 0.375000 0.706030
vt 0.366598 0.750000
vt 0.429557 0.543970
vt 0.474159 0.706030
vt 0.366598 0.500000
vt 0.375000 0.543970
vt 0.567312 0.543970
vt 0.418970 0.491598
vt 0.581030 0.491598
vt 0.581030 0.258402
vt 0.418970 0.258402
vt 0.633402 0.536896
vt 0.866598 0.500000
vt 0.866598 0.536896
vt 0.625000 0.567887
vt 0.633402 0.500000
vt 0.875000 0.567887
vt 0.567312 0.206030
vt 0.866598 0.713104
vt 0.875000 0.729948
vt 0.521051 0.043970
vt 0.429557 0.206030
vt 0.474159 0.043970
vt 0.133402 0.500000
vt 0.500000 0.991598
vt 0.557064 1.000000
vt 0.500000 1.000000
vt 0.500000 0.991598
vt 0.625000 0.991598
vt 0.633402 0.750000
vt 0.633402 0.713104
vt 0.625000 0.729948
vt 0.500000 0.758402
vt 0.521051 0.706030
vt 0.500000 0.758402
vt 0.866598 0.750000
vn -0.7071 0.6991 -0.1062
vn -0.5774 0.4841 -0.6575
vn 0.0000 0.5929 -0.8053
vn 0.0000 0.9887 -0.1502
vn 0.5774 0.4841 -0.6575
vn 0.7071 0.6991 -0.1062
vn 0.5774 0.6575 0.4841
vn 0.0000 0.8053 0.5929
vn 0.7071 0.1062 0.6991
vn 0.0000 0.1502 0.9887
vn 0.0000 -0.7970 0.6040
vn 0.7723 -0.5063 0.3838
vn -0.7723 -0.5063 0.3838
vn -0.7071 0.1062 0.6991
vn -0.7071 -0.6444 -0.2912
vn -1.0000 0.0000 0.0000
vn -0.5774 0.6575 0.4841
vn -0.7071 -0.1062 -0.6991
vn -0.5512 -0.5040 -0.6650
vn 0.0000 -0.6040 -0.7970
vn 0.0000 -0.9113 -0.4118
vn 0.7071 -0.6444 -0.2912
vn 0.5512 -0.5040 -0.6650
vn 0.7071 -0.1062 -0.6991
vn 0.0000 0.0000 1.0000
vn 1.0000 -0.0000 0.0000
s off
f 1/1/1 19/2/1 4/3/1
f 1/1/2 3/4/2 2/5/2
f 5/6/3 3/4/3 1/1/3
f 8/7/4 1/1/4 4/3/4
f 5/6/5 7/8/5 6/9/5
f 5/6/6 9/10/6 7/11/6
f 8/7/7 10/12/7 9/13/7
f 4/3/8 10/12/8 8/7/8
f 14/14/9 10/15/9 12/16/9
f 15/17/10 10/15/10 11/18/10
f 13/19/11 15/20/11 16/21/11
f 13/19/12 14/22/12 12/23/12
f 16/21/13 15/20/13 17/24/13
f 11/18/14 17/25/14 15/17/14
f 21/26/15 17/24/15 18/27/15
f 18/28/16 19/29/16 2/30/16
f 4/3/17 19/2/17 11/31/17
f 3/32/18 18/33/18 2/34/18
f 20/35/19 21/36/19 18/33/19
f 21/26/20 24/37/20 22/38/20
f 16/21/21 22/38/21 13/19/21
f 22/38/22 14/14/22 13/19/22
f 22/38/23 24/37/23 23/39/23
f 24/40/24 7/11/24 23/41/24
f 6/42/25 20/35/25 3/32/25
f 9/10/26 23/41/26 7/11/26
f 1/1/1 2/5/1 19/2/1
f 5/6/3 6/9/3 3/4/3
f 8/7/4 5/6/4 1/1/4
f 5/6/6 8/7/6 9/10/6
f 4/3/8 11/31/8 10/12/8
f 14/14/9 9/10/9 10/15/9
f 15/17/10 12/16/10 10/15/10
f 13/19/11 12/23/11 15/20/11
f 11/18/14 19/29/14 17/25/14
f 21/26/15 16/21/15 17/24/15
f 18/28/16 17/25/16 19/29/16
f 3/32/25 20/35/25 18/33/25
f 21/26/20 20/43/20 24/37/20
f 16/21/21 21/26/21 22/38/21
f 22/38/22 23/41/22 14/14/22
f 24/40/25 6/42/25 7/11/25
f 6/42/25 24/40/25 20/35/25
f 9/10/26 14/14/26 23/41/26
