# Blender v2.81 (sub 16) OBJ File: 'finalMap.blend'
# www.blender.org
o Cube.009_Cube.012
v -25.054461 1.457853 3.748686
v -24.340107 1.457853 3.748686
v -25.054461 -0.085896 3.748686
v -24.340107 -0.085896 3.748686
v -25.054461 1.457853 25.247223
v -24.340107 1.457853 25.247223
v -25.054461 -0.085896 25.247223
v -24.340107 -0.085896 25.247223
v -25.054461 1.457853 26.092569
v -24.340107 1.457853 26.092569
v -25.054461 -0.085896 26.092569
v -24.340107 -0.085896 26.092569
vt 1.000000 0.069090
vt 0.930960 0.138181
vt 0.930960 0.069090
vt 0.792878 0.962166
vt 0.396440 0.000000
vt 0.792879 0.000000
vt 0.861919 0.962166
vt 0.861919 0.000000
vt 0.396439 0.962166
vt 0.000000 0.000000
vt 0.396439 0.000000
vt 0.930959 0.962166
vt 0.861920 0.000000
vt 0.930960 0.000000
vt 1.000000 0.069090
vt 0.930960 0.000000
vt 1.000000 0.000000
vt 0.861919 1.000000
vt 0.396439 1.000000
vt 0.000000 0.962166
vt 0.930959 1.000000
vt 0.861919 0.962166
vt 0.396439 1.000000
vt 0.396439 0.962166
vt 1.000000 0.138181
vt 0.930960 0.069090
vt 0.792879 1.000000
vt 0.000001 1.000000
vt 0.861919 1.000000
vn 0.0000 0.0000 -1.0000
vn 1.0000 0.0000 0.0000
vn 0.0000 1.0000 0.0000
vn -1.0000 0.0000 0.0000
vn 0.0000 -1.0000 0.0000
vn 0.0000 0.0000 1.0000
s off
f 2/1/1 3/2/1 1/3/1
f 6/4/2 4/5/2 2/6/2
f 5/7/3 2/6/3 1/8/3
f 7/9/4 1/10/4 3/11/4
f 8/12/5 3/13/5 4/14/5
f 11/15/6 10/16/6 9/17/6
f 9/18/3 6/4/3 5/7/3
f 11/19/4 5/20/4 7/9/4
f 12/21/5 7/22/5 8/12/5
f 6/4/2 12/23/2 8/24/2
f 2/1/1 4/25/1 3/2/1
f 6/4/2 8/24/2 4/5/2
f 5/7/3 6/4/3 2/6/3
f 7/9/4 5/20/4 1/10/4
f 8/12/5 7/22/5 3/13/5
f 11/15/6 12/26/6 10/16/6
f 9/18/3 10/27/3 6/4/3
f 11/19/4 9/28/4 5/20/4
f 12/21/5 11/29/5 7/22/5
f 6/4/2 10/27/2 12/23/2
