# Blender v2.81 (sub 16) OBJ File: 'finalMap.blend'
# www.blender.org
o Cube.010_Cube.017
v 38.082226 -1.235624 -16.215736
v 38.082226 -0.364146 -15.344259
v 37.210747 -0.364146 -16.215736
v 38.082226 -0.364146 -15.344259
v 38.082226 0.981372 -16.075531
v 37.210747 0.033695 -16.215736
v 38.082226 -1.235624 -19.427742
v 37.210747 -0.364146 -19.427742
v 38.082226 -0.364146 -20.299219
v 38.082226 3.245297 -19.567947
v 38.082226 2.847859 -20.299219
v 37.210747 2.115846 -19.427742
v 62.269035 -1.235624 -16.215736
v 63.140511 -0.364146 -16.215736
v 62.269035 -0.364146 -15.344259
v 62.269035 0.981373 -16.075531
v 62.269035 -0.364146 -15.344259
v 63.140511 0.033695 -16.215736
v 62.269035 -1.235624 -19.427742
v 62.269035 -0.364146 -20.299219
v 63.140511 -0.364146 -19.427742
v 62.269035 3.245297 -19.567947
v 63.140511 2.115846 -19.427742
v 62.269035 2.847859 -20.299219
vt 0.500000 0.758402
vt 0.500000 0.991598
vt 0.500000 0.758402
vt 0.429557 0.543970
vt 0.521051 0.706030
vt 0.474159 0.706030
vt 0.866598 0.536896
vt 0.633402 0.713104
vt 0.633402 0.536896
vt 0.521051 0.043970
vt 0.429557 0.206030
vt 0.474159 0.043970
vt 0.581030 0.258402
vt 0.418970 0.491598
vt 0.418970 0.258402
vt 0.133402 0.706030
vt 0.133402 0.750000
vt 0.125000 0.706030
vt 0.500000 0.991598
vt 0.625000 0.991598
vt 0.557064 1.000000
vt 0.133402 0.543970
vt 0.125000 0.543970
vt 0.133402 0.500000
vt 0.866598 0.500000
vt 0.875000 0.567887
vt 0.366598 0.706030
vt 0.375000 0.706030
vt 0.366598 0.750000
vt 0.633402 0.750000
vt 0.625000 0.729948
vt 0.366598 0.543970
vt 0.366598 0.500000
vt 0.375000 0.543970
vt 0.625000 0.567887
vt 0.633402 0.500000
vt 0.500000 1.000000
vt 0.866598 0.713104
vt 0.875000 0.729948
vt 0.567312 0.206030
vt 0.567312 0.543970
vt 0.581030 0.491598
vt 0.866598 0.750000
vn 0.0000 0.0000 1.0000
vn 1.0000 0.0000 0.0000
vn 0.0000 0.8391 0.5439
vn -1.0000 0.0000 0.0000
vn 0.0000 0.0000 -1.0000
vn -0.5773 -0.5774 0.5773
vn -0.5512 0.3984 0.7331
vn -0.5773 -0.5774 -0.5773
vn -0.7722 0.5582 -0.3034
vn 0.5774 -0.5773 0.5774
vn 0.5512 0.3984 0.7331
vn 0.5774 -0.5773 -0.5774
vn 0.7723 0.5582 -0.3034
vn -0.7071 -0.7071 0.0000
vn -0.6570 0.0000 0.7539
vn -0.7071 0.5933 0.3846
vn -0.7071 0.0000 -0.7071
vn 0.0000 -0.7071 -0.7071
vn 0.0000 0.8786 -0.4775
vn 0.7071 0.0000 -0.7071
vn 0.7071 -0.7071 0.0000
vn 0.7071 0.5933 0.3846
vn 0.0000 -0.7071 0.7071
vn -0.0000 0.4775 0.8786
vn 0.0000 -1.0000 0.0000
vn -0.7071 0.0000 0.7071
vn 0.7071 0.0000 0.7071
s off
f 17/1/1 2/2/1 15/3/1
f 21/4/2 18/5/2 14/6/2
f 10/7/3 16/8/3 22/9/3
f 6/10/4 8/11/4 3/12/4
f 11/13/5 20/14/5 9/15/5
f 1/16/6 2/17/6 3/18/6
f 4/19/7 5/20/7 6/21/7
f 7/22/8 8/23/8 9/24/8
f 10/7/9 11/25/9 12/26/9
f 13/27/10 14/28/10 15/29/10
f 16/8/11 17/30/11 18/31/11
f 19/32/12 20/33/12 21/34/12
f 22/9/13 23/35/13 24/36/13
f 1/16/14 8/23/14 7/22/14
f 4/19/15 3/37/15 2/2/15
f 5/38/16 12/26/16 6/39/16
f 9/15/17 12/40/17 11/13/17
f 7/22/18 20/33/18 19/32/18
f 22/9/19 11/25/19 10/7/19
f 23/41/20 20/14/20 24/42/20
f 19/32/21 14/6/21 13/27/21
f 16/8/22 23/41/22 22/9/22
f 15/3/1 18/5/1 17/1/1
f 13/27/23 2/17/23 1/16/23
f 5/38/24 17/30/24 16/8/24
f 19/32/25 1/16/25 7/22/25
f 17/1/1 4/19/1 2/2/1
f 21/4/2 23/41/2 18/5/2
f 10/7/3 5/38/3 16/8/3
f 6/10/4 12/40/4 8/11/4
f 11/13/5 24/42/5 20/14/5
f 1/16/14 3/18/14 8/23/14
f 4/19/26 6/21/26 3/37/26
f 5/38/16 10/7/16 12/26/16
f 9/15/17 8/11/17 12/40/17
f 7/22/18 9/24/18 20/33/18
f 22/9/19 24/36/19 11/25/19
f 23/41/20 21/4/20 20/14/20
f 19/32/21 21/4/21 14/6/21
f 16/8/22 18/5/22 23/41/22
f 15/3/27 14/6/27 18/5/27
f 13/27/23 15/29/23 2/17/23
f 5/38/24 4/43/24 17/30/24
f 19/32/25 13/27/25 1/16/25
