# Blender v2.81 (sub 16) OBJ File: 'finalMap.blend'
# www.blender.org
o Cube.040_Cube.047
v 27.849653 11.768421 -33.474617
v 31.323053 11.768421 -30.713991
v 27.849653 12.360214 -33.474617
v 25.089029 11.768421 -30.001219
v 28.562429 11.768421 -27.240593
v 25.089029 12.360214 -30.001219
v 28.562429 12.360214 -27.240593
v 31.323053 12.360214 -30.713991
vt 0.125000 0.500000
vt 0.375000 0.750000
vt 0.125000 0.750000
vt 0.625000 0.000000
vt 0.375000 0.250000
vt 0.375000 0.000000
vt 0.625000 0.750000
vt 0.375000 1.000000
vt 0.625000 0.500000
vt 0.375000 0.500000
vt 0.875000 0.500000
vt 0.625000 0.250000
vt 0.625000 1.000000
vt 0.875000 0.750000
vn 0.0000 -1.0000 0.0000
vn 0.6222 0.0000 -0.7829
vn -0.7829 0.0000 -0.6222
vn -0.6222 0.0000 0.7829
vn 0.0000 1.0000 0.0000
vn 0.7829 0.0000 0.6222
s off
f 2/1/1 4/2/1 1/3/1
f 3/4/2 2/5/2 1/6/2
f 6/7/3 1/8/3 4/2/3
f 7/9/4 4/2/4 5/10/4
f 8/11/5 6/7/5 7/9/5
f 8/12/6 5/10/6 2/5/6
f 2/1/1 5/10/1 4/2/1
f 3/4/2 8/12/2 2/5/2
f 6/7/3 3/13/3 1/8/3
f 7/9/4 6/7/4 4/2/4
f 8/11/5 3/14/5 6/7/5
f 8/12/6 7/9/6 5/10/6
