# Blender v2.81 (sub 16) OBJ File: 'finalMap.blend'
# www.blender.org
o Cube.008_Cube.011
v -14.361571 1.457852 3.748686
v -15.075925 1.457852 3.748686
v -14.361571 -0.085897 3.748686
v -15.075925 -0.085897 3.748686
v -14.361571 1.457852 25.247223
v -15.075925 1.457852 25.247223
v -14.361571 -0.085897 25.247223
v -15.075925 -0.085897 25.247223
v -14.361571 1.457852 26.092569
v -15.075925 1.457852 26.092569
v -14.361571 -0.085897 26.092569
v -15.075925 -0.085897 26.092569
vt 1.000000 0.069090
vt 0.930960 0.000000
vt 1.000000 0.000000
vt 0.792878 0.000000
vt 0.396440 0.962166
vt 0.396439 0.000000
vt 0.861919 1.000000
vt 0.930960 0.037833
vt 0.930960 1.000000
vt 0.396439 0.000000
vt 0.000000 0.962166
vt 0.000000 0.000000
vt 0.792879 1.000000
vt 0.861919 0.037833
vt 0.861919 1.000000
vt 1.000000 0.069090
vt 0.930960 0.138181
vt 0.930960 0.069090
vt 0.861920 0.037833
vt 0.930960 0.000000
vt 0.396439 0.962166
vt 0.000000 1.000000
vt 0.792879 0.037833
vt 0.861919 0.000000
vt 0.792879 1.000000
vt 0.792879 0.962166
vt 0.930960 0.069090
vt 1.000000 0.138181
vt 0.861920 0.000000
vt 0.396439 1.000000
vt 0.792879 0.000000
vt 0.396440 1.000000
vn 0.0000 0.0000 -1.0000
vn -1.0000 0.0000 0.0000
vn 0.0000 1.0000 0.0000
vn 1.0000 0.0000 0.0000
vn 0.0000 -1.0000 0.0000
vn 0.0000 0.0000 1.0000
s off
f 3/1/1 2/2/1 1/3/1
f 4/4/2 6/5/2 2/6/2
f 2/7/3 5/8/3 1/9/3
f 1/10/4 7/11/4 3/12/4
f 3/13/5 8/14/5 4/15/5
f 10/16/6 11/17/6 9/18/6
f 6/19/3 9/20/3 5/8/3
f 5/21/4 11/22/4 7/11/4
f 7/23/5 12/24/5 8/14/5
f 12/25/2 6/5/2 8/26/2
f 3/1/1 4/27/1 2/2/1
f 4/4/2 8/26/2 6/5/2
f 2/7/3 6/19/3 5/8/3
f 1/10/4 5/21/4 7/11/4
f 3/13/5 7/23/5 8/14/5
f 10/16/6 12/28/6 11/17/6
f 6/19/3 10/29/3 9/20/3
f 5/21/4 9/30/4 11/22/4
f 7/23/5 11/31/5 12/24/5
f 12/25/2 10/32/2 6/5/2
