# Blender v2.81 (sub 16) OBJ File: 'finalMap.blend'
# www.blender.org
o Cube.014_Cube.021
v 32.945065 10.368863 -12.473629
v 32.073586 10.773773 -11.701927
v 32.945065 10.002072 -11.297018
v 32.945065 13.213120 -13.966004
v 57.131874 10.368863 -12.473629
v 57.131874 10.002072 -11.297018
v 58.003349 10.773773 -11.701927
v 57.131874 13.213120 -13.966004
v 58.003349 13.618030 -13.194304
v 57.131874 14.389729 -13.599214
v 32.945065 14.389729 -13.599214
v 57.131874 15.882106 -10.754957
v 57.131874 15.419217 -10.063256
v 58.003349 14.770294 -10.998251
v 32.945065 15.882106 -10.754957
v 32.945065 15.419217 -10.063256
v 32.073586 14.770293 -10.998251
v 32.073586 10.958619 -11.349636
v 32.073586 13.618030 -13.194304
v 32.945065 10.002072 -11.297018
v 32.945065 11.274780 -10.445318
v 57.131874 11.274780 -10.445318
v 58.003349 10.958619 -11.349636
v 57.131874 10.002072 -11.297018
vt 0.133402 0.706030
vt 0.125000 0.543970
vt 0.133402 0.543970
vt 0.133402 0.750000
vt 0.125000 0.706030
vt 0.366598 0.706030
vt 0.366598 0.543970
vt 0.375000 0.706030
vt 0.366598 0.750000
vt 0.429557 0.543970
vt 0.474159 0.706030
vt 0.366598 0.500000
vt 0.375000 0.543970
vt 0.567312 0.543970
vt 0.418970 0.491598
vt 0.581030 0.491598
vt 0.581030 0.258402
vt 0.418970 0.258402
vt 0.633402 0.536896
vt 0.866598 0.500000
vt 0.866598 0.536896
vt 0.625000 0.567887
vt 0.633402 0.500000
vt 0.875000 0.567887
vt 0.567312 0.206030
vt 0.866598 0.713104
vt 0.875000 0.729948
vt 0.521051 0.043970
vt 0.429557 0.206030
vt 0.474159 0.043970
vt 0.133402 0.500000
vt 0.500000 0.991598
vt 0.557064 1.000000
vt 0.500000 1.000000
vt 0.500000 0.991598
vt 0.625000 0.991598
vt 0.633402 0.750000
vt 0.633402 0.713104
vt 0.625000 0.729948
vt 0.500000 0.758402
vt 0.521051 0.706030
vt 0.500000 0.758402
vt 0.866598 0.750000
vn -0.7071 -0.3285 -0.6261
vn -0.5773 -0.7795 -0.2430
vn 0.0000 -0.9547 -0.2976
vn 0.0000 -0.4646 -0.8855
vn 0.5773 -0.7795 -0.2430
vn 0.7071 -0.3285 -0.6261
vn 0.5774 0.2430 -0.7795
vn 0.0000 0.2976 -0.9547
vn 0.7071 0.6261 -0.3285
vn 0.0000 0.8855 -0.4646
vn 0.0000 0.8311 0.5562
vn 0.7722 0.5280 0.3533
vn -0.7722 0.5280 0.3533
vn -0.7071 0.6262 -0.3285
vn -0.7071 -0.0649 0.7041
vn -1.0000 0.0000 0.0000
vn -0.5773 0.2430 -0.7795
vn -0.7071 -0.6261 0.3285
vn -0.5512 -0.4640 0.6934
vn 0.0000 -0.5562 0.8311
vn 0.0000 -0.0918 0.9958
vn 0.7071 -0.0649 0.7041
vn 0.5512 -0.4640 0.6934
vn 0.0000 0.0000 1.0000
vn 1.0000 0.0000 0.0000
vn 0.7071 0.6262 -0.3285
vn -0.7071 0.6261 -0.3285
vn 0.7071 -0.6261 0.3285
s off
f 1/1/1 19/2/1 4/3/1
f 1/1/2 3/4/2 2/5/2
f 5/6/3 3/4/3 1/1/3
f 8/7/4 1/1/4 4/3/4
f 5/6/5 7/8/5 6/9/5
f 5/6/6 9/10/6 7/11/6
f 8/7/7 10/12/7 9/13/7
f 4/3/8 10/12/8 8/7/8
f 14/14/9 10/15/9 12/16/9
f 15/17/10 10/15/10 11/18/10
f 13/19/11 15/20/11 16/21/11
f 13/19/12 14/22/12 12/23/12
f 16/21/13 15/20/13 17/24/13
f 11/18/14 17/25/14 15/17/14
f 21/26/15 17/24/15 18/27/15
f 18/28/16 19/29/16 2/30/16
f 4/3/17 19/2/17 11/31/17
f 3/32/18 18/33/18 2/34/18
f 20/35/19 21/36/19 18/33/19
f 21/26/20 24/37/20 22/38/20
f 16/21/21 22/38/21 13/19/21
f 22/38/22 14/14/22 13/19/22
f 22/38/23 24/37/23 23/39/23
f 6/40/24 23/41/24 24/42/24
f 24/42/24 3/32/24 6/40/24
f 9/10/25 23/41/25 7/11/25
f 1/1/1 2/5/1 19/2/1
f 5/6/3 6/9/3 3/4/3
f 8/7/4 5/6/4 1/1/4
f 5/6/6 8/7/6 9/10/6
f 4/3/8 11/31/8 10/12/8
f 14/14/26 9/10/26 10/15/26
f 15/17/10 12/16/10 10/15/10
f 13/19/11 12/23/11 15/20/11
f 11/18/27 19/29/27 17/25/27
f 21/26/15 16/21/15 17/24/15
f 18/28/16 17/25/16 19/29/16
f 3/32/24 20/35/24 18/33/24
f 21/26/20 20/43/20 24/37/20
f 16/21/21 21/26/21 22/38/21
f 22/38/22 23/41/22 14/14/22
f 6/40/28 7/11/28 23/41/28
f 24/42/24 20/35/24 3/32/24
f 9/10/25 14/14/25 23/41/25
