# Blender v2.81 (sub 16) OBJ File: 'sw.blend'
# www.blender.org
o Cube.012_Cube.016
v -12.631255 5.913575 -10.502518
v -12.159906 8.853803 -9.231491
v -15.813631 6.197196 -9.978452
v -12.266678 4.587968 -7.571228
v -11.795330 7.528194 -6.300203
v -15.449055 4.871589 -7.047162
v -14.977706 7.811814 -5.776136
v -15.342283 9.137423 -8.707425
vt 0.717280 0.713282
vt 0.588930 0.586204
vt 0.717280 0.586205
vt 0.727776 0.263378
vt 0.608579 0.136300
vt 0.727776 0.136300
vt 0.612640 0.000000
vt 0.731836 0.127078
vt 0.612640 0.127078
vt 0.000000 0.605988
vt 0.119197 0.733066
vt 0.000000 0.733066
vt 0.423659 0.596096
vt 0.295310 0.723174
vt 0.295310 0.596096
vt 0.542856 0.723174
vt 0.423659 0.723174
vt 0.588930 0.713282
vt 0.608579 0.263378
vt 0.731836 0.000000
vt 0.119197 0.605988
vt 0.423659 0.723174
vt 0.542856 0.596096
vn 0.9829 -0.0876 -0.1619
vn -0.1126 0.4094 -0.9054
vn -0.1456 -0.9081 -0.3926
vn 0.1126 -0.4094 0.9054
vn -0.9829 0.0876 0.1619
vn 0.1456 0.9081 0.3926
s off
f 2/1/1 4/2/1 1/3/1
f 3/4/2 2/5/2 1/6/2
f 6/7/3 1/8/3 4/9/3
f 7/10/4 4/11/4 5/12/4
f 8/13/5 6/14/5 7/15/5
f 8/13/6 5/16/6 2/17/6
f 2/1/1 5/18/1 4/2/1
f 3/4/2 8/19/2 2/5/2
f 6/7/3 3/20/3 1/8/3
f 7/10/4 6/21/4 4/11/4
f 8/13/5 3/22/5 6/14/5
f 8/13/6 7/23/6 5/16/6
