# Blender v2.81 (sub 16) OBJ File: 'finalMap.blend'
# www.blender.org
o Cube.020_Cube.027
v 25.239323 8.644881 4.600590
v 24.367846 7.850081 4.958035
v 25.239323 7.492637 4.163233
v 25.239323 9.962314 7.529985
v 49.426132 8.644881 4.600590
v 49.426132 7.492637 4.163233
v 50.297607 7.850081 4.958035
v 49.426132 9.962314 7.529985
v 50.297607 9.167513 7.887430
v 49.426132 9.524957 8.682230
v 25.239323 9.524957 8.682230
v 49.426132 6.595561 9.999662
v 49.426132 5.933155 9.495743
v 50.297607 6.905724 8.904619
v 25.239323 6.595561 9.999662
v 25.239323 5.933155 9.495743
v 24.367846 6.905724 8.904619
v 24.367846 7.487244 5.121212
v 24.367846 9.167513 7.887430
v 25.239323 7.492637 4.163233
v 25.239323 6.565442 5.382040
v 49.426132 6.565442 5.382040
v 50.297607 7.487244 5.121212
v 49.426132 7.492637 4.163233
vt 0.133402 0.706030
vt 0.125000 0.543970
vt 0.133402 0.543970
vt 0.133402 0.750000
vt 0.125000 0.706030
vt 0.366598 0.706030
vt 0.366598 0.543970
vt 0.375000 0.706030
vt 0.366598 0.750000
vt 0.474159 0.706030
vt 0.366598 0.500000
vt 0.375000 0.543970
vt 0.567312 0.543970
vt 0.418970 0.491598
vt 0.581030 0.491598
vt 0.581030 0.258402
vt 0.418970 0.258402
vt 0.633402 0.536896
vt 0.866598 0.500000
vt 0.866598 0.536896
vt 0.625000 0.567887
vt 0.633402 0.500000
vt 0.875000 0.567887
vt 0.567312 0.206030
vt 0.866598 0.713104
vt 0.875000 0.729948
vt 0.521051 0.043970
vt 0.429557 0.206030
vt 0.474159 0.043970
vt 0.133402 0.500000
vt 0.500000 0.991598
vt 0.557064 1.000000
vt 0.500000 1.000000
vt 0.500000 0.991598
vt 0.625000 0.991598
vt 0.633402 0.750000
vt 0.633402 0.713104
vt 0.625000 0.729948
vt 0.500000 0.758402
vt 0.521051 0.706030
vt 0.500000 0.758402
vt 0.429557 0.543970
vt 0.866598 0.750000
vn -0.7071 0.6449 -0.2900
vn -0.5774 0.2897 -0.7634
vn 0.0000 0.3549 -0.9349
vn 0.0000 0.9120 -0.4102
vn 0.5774 0.2897 -0.7634
vn 0.7071 0.6449 -0.2900
vn 0.5774 0.7634 0.2897
vn 0.0000 0.9349 0.3549
vn 0.7071 0.2900 0.6449
vn 0.0000 0.4102 0.9120
vn 0.0000 -0.6055 0.7959
vn 0.7723 -0.3847 0.5056
vn -0.7723 -0.3847 0.5056
vn -0.7071 0.2900 0.6449
vn -0.7071 -0.6989 -0.1074
vn -1.0000 0.0000 0.0000
vn -0.5774 0.7634 0.2897
vn -0.7071 -0.2900 -0.6449
vn -0.5512 -0.6641 -0.5052
vn 0.0000 -0.7959 -0.6055
vn 0.0000 -0.9884 -0.1519
vn 0.7071 -0.6989 -0.1074
vn 0.5512 -0.6641 -0.5052
vn 0.7071 -0.2900 -0.6449
vn 0.0000 0.0000 1.0000
vn 1.0000 -0.0000 0.0000
s off
f 1/1/1 19/2/1 4/3/1
f 1/1/2 3/4/2 2/5/2
f 5/6/3 3/4/3 1/1/3
f 8/7/4 1/1/4 4/3/4
f 5/6/5 7/8/5 6/9/5
f 8/7/6 7/10/6 5/6/6
f 8/7/7 10/11/7 9/12/7
f 4/3/8 10/11/8 8/7/8
f 14/13/9 10/14/9 12/15/9
f 15/16/10 10/14/10 11/17/10
f 13/18/11 15/19/11 16/20/11
f 13/18/12 14/21/12 12/22/12
f 16/20/13 15/19/13 17/23/13
f 11/17/14 17/24/14 15/16/14
f 21/25/15 17/23/15 18/26/15
f 18/27/16 19/28/16 2/29/16
f 4/3/17 19/2/17 11/30/17
f 3/31/18 18/32/18 2/33/18
f 20/34/19 21/35/19 18/32/19
f 21/25/20 24/36/20 22/37/20
f 16/20/21 22/37/21 13/18/21
f 22/37/22 14/13/22 13/18/22
f 22/37/23 24/36/23 23/38/23
f 24/39/24 7/10/24 23/40/24
f 6/41/25 20/34/25 3/31/25
f 9/42/26 23/40/26 7/10/26
f 1/1/1 2/5/1 19/2/1
f 5/6/3 6/9/3 3/4/3
f 8/7/4 5/6/4 1/1/4
f 8/7/6 9/42/6 7/10/6
f 4/3/8 11/30/8 10/11/8
f 14/13/9 9/42/9 10/14/9
f 15/16/10 12/15/10 10/14/10
f 13/18/11 12/22/11 15/19/11
f 11/17/14 19/28/14 17/24/14
f 21/25/15 16/20/15 17/23/15
f 18/27/16 17/24/16 19/28/16
f 3/31/25 20/34/25 18/32/25
f 21/25/20 20/43/20 24/36/20
f 16/20/21 21/25/21 22/37/21
f 22/37/22 23/40/22 14/13/22
f 24/39/25 6/41/25 7/10/25
f 6/41/25 24/39/25 20/34/25
f 9/42/26 14/13/26 23/40/26
