# Blender v2.81 (sub 16) OBJ File: 'finalMap.blend'
# www.blender.org
o Cube.042_Cube.049
v 36.499092 14.031771 -27.259491
v 39.342834 14.031771 -23.267265
v 36.499092 14.685541 -27.259491
v 32.506866 14.031771 -24.415752
v 35.350601 14.031771 -20.423527
v 32.506866 14.685541 -24.415752
v 35.350601 14.685541 -20.423527
v 39.342834 14.685541 -23.267265
vt 0.375000 0.500000
vt 0.125000 0.750000
vt 0.125000 0.500000
vt 0.625000 0.000000
vt 0.375000 0.250000
vt 0.375000 0.000000
vt 0.625000 0.750000
vt 0.375000 1.000000
vt 0.375000 0.750000
vt 0.625000 0.500000
vt 0.875000 0.750000
vt 0.625000 0.250000
vt 0.625000 1.000000
vt 0.875000 0.500000
vn 0.0000 -1.0000 0.0000
vn 0.8145 0.0000 -0.5802
vn -0.5802 0.0000 -0.8145
vn -0.8145 0.0000 0.5802
vn 0.0000 1.0000 0.0000
vn 0.5802 0.0000 0.8145
s off
f 5/1/1 1/2/1 2/3/1
f 3/4/2 2/5/2 1/6/2
f 6/7/3 1/8/3 4/9/3
f 7/10/4 4/9/4 5/1/4
f 7/10/5 3/11/5 6/7/5
f 8/12/6 5/1/6 2/5/6
f 5/1/1 4/9/1 1/2/1
f 3/4/2 8/12/2 2/5/2
f 6/7/3 3/13/3 1/8/3
f 7/10/4 6/7/4 4/9/4
f 7/10/5 8/14/5 3/11/5
f 8/12/6 7/10/6 5/1/6
