# Blender v2.81 (sub 16) OBJ File: 'finalMap.blend'
# www.blender.org
o Cube.036_Cube.043
v 10.059258 7.865080 -37.260021
v 13.672386 7.865080 -36.857426
v 10.059258 8.349987 -37.260021
v 9.656662 7.865080 -33.646893
v 13.269791 7.865080 -33.244297
v 9.656662 8.349987 -33.646893
v 13.269791 8.349987 -33.244297
v 13.672386 8.349987 -36.857426
vt 0.375000 0.500000
vt 0.125000 0.750000
vt 0.125000 0.500000
vt 0.625000 0.000000
vt 0.375000 0.250000
vt 0.375000 0.000000
vt 0.625000 0.750000
vt 0.375000 1.000000
vt 0.375000 0.750000
vt 0.625000 0.500000
vt 0.875000 0.500000
vt 0.625000 0.250000
vt 0.625000 1.000000
vt 0.875000 0.750000
vn 0.0000 -1.0000 0.0000
vn 0.1107 0.0000 -0.9938
vn -0.9938 0.0000 -0.1107
vn -0.1107 0.0000 0.9938
vn 0.0000 1.0000 0.0000
vn 0.9938 0.0000 0.1107
s off
f 5/1/1 1/2/1 2/3/1
f 3/4/2 2/5/2 1/6/2
f 6/7/3 1/8/3 4/9/3
f 7/10/4 4/9/4 5/1/4
f 8/11/5 6/7/5 7/10/5
f 8/12/6 5/1/6 2/5/6
f 5/1/1 4/9/1 1/2/1
f 3/4/2 8/12/2 2/5/2
f 6/7/3 3/13/3 1/8/3
f 7/10/4 6/7/4 4/9/4
f 8/11/5 3/14/5 6/7/5
f 8/12/6 7/10/6 5/1/6
