# Blender v2.81 (sub 16) OBJ File: 'finalMap.blend'
# www.blender.org
o Cube.013_Cube.020
v 34.229355 7.967182 -14.579163
v 33.357876 8.564465 -13.944553
v 34.229355 7.929855 -13.347273
v 34.229355 10.306159 -16.780563
v 58.416161 7.967182 -14.579163
v 58.416161 7.929855 -13.347273
v 59.287640 8.564465 -13.944553
v 58.416161 10.306159 -16.780563
v 59.287640 10.903441 -16.145954
v 58.416161 11.538050 -16.743237
v 34.229355 11.538050 -16.743237
v 58.416161 13.739450 -14.404259
v 58.416161 13.479329 -13.613657
v 59.287640 12.603145 -14.340029
v 34.229355 13.739450 -14.404259
v 34.229355 13.479329 -13.613657
v 33.357876 12.603145 -14.340029
v 33.357876 8.837131 -13.654847
v 33.357876 10.903441 -16.145954
v 34.229355 7.929855 -13.347272
v 34.229355 9.384540 -12.868658
v 58.416161 9.384540 -12.868658
v 59.287640 8.837131 -13.654847
v 58.416161 7.929855 -13.347272
vt 0.133402 0.543970
vt 0.125000 0.706030
vt 0.125000 0.543970
vt 0.133402 0.706030
vt 0.133402 0.750000
vt 0.366598 0.706030
vt 0.366598 0.543970
vt 0.375000 0.706030
vt 0.366598 0.750000
vt 0.474159 0.706030
vt 0.366598 0.500000
vt 0.375000 0.543970
vt 0.567312 0.543970
vt 0.418970 0.491598
vt 0.581030 0.491598
vt 0.581030 0.258402
vt 0.418970 0.258402
vt 0.633402 0.536896
vt 0.866598 0.500000
vt 0.866598 0.536896
vt 0.625000 0.567887
vt 0.633402 0.500000
vt 0.875000 0.567887
vt 0.567312 0.206030
vt 0.866598 0.713104
vt 0.875000 0.729948
vt 0.521051 0.043970
vt 0.429557 0.206030
vt 0.474159 0.043970
vt 0.133402 0.500000
vt 0.500000 0.991598
vt 0.500000 1.000000
vt 0.500000 0.991598
vt 0.625000 0.991598
vt 0.557064 1.000000
vt 0.633402 0.750000
vt 0.633402 0.713104
vt 0.625000 0.729948
vt 0.500000 0.758402
vt 0.521051 0.706030
vt 0.500000 0.758402
vt 0.429557 0.543970
vt 0.866598 0.750000
vn -0.7071 -0.4846 -0.5149
vn -0.5774 -0.8161 -0.0247
vn 0.0000 -0.9995 -0.0303
vn 0.0000 -0.6854 -0.7282
vn 0.5773 -0.8161 -0.0247
vn 0.7071 -0.4846 -0.5149
vn 0.5774 0.0247 -0.8161
vn 0.0000 0.0303 -0.9995
vn 0.7071 0.5149 -0.4846
vn 0.0000 0.7282 -0.6854
vn 0.0000 0.9499 0.3125
vn 0.7723 0.6035 0.1986
vn -0.7723 0.6035 0.1986
vn -0.7071 0.5149 -0.4846
vn -0.7071 0.1266 0.6957
vn -1.0000 0.0000 0.0000
vn -0.5774 0.0247 -0.8161
vn -0.5512 -0.2608 0.7926
vn 0.0000 -0.3125 0.9499
vn 0.0000 0.1790 0.9838
vn 0.7071 0.1266 0.6957
vn 0.5512 -0.2608 0.7926
vn 0.7071 -0.5149 0.4846
vn 0.0000 -1.0000 0.0000
vn 1.0000 0.0000 0.0000
vn -0.7071 -0.5149 0.4846
vn 0.2425 0.9701 0.0000
s off
f 4/1/1 2/2/1 19/3/1
f 1/4/2 3/5/2 2/2/2
f 5/6/3 3/5/3 1/4/3
f 8/7/4 1/4/4 4/1/4
f 5/6/5 7/8/5 6/9/5
f 8/7/6 7/10/6 5/6/6
f 8/7/7 10/11/7 9/12/7
f 4/1/8 10/11/8 8/7/8
f 14/13/9 10/14/9 12/15/9
f 15/16/10 10/14/10 11/17/10
f 13/18/11 15/19/11 16/20/11
f 13/18/12 14/21/12 12/22/12
f 16/20/13 15/19/13 17/23/13
f 11/17/14 17/24/14 15/16/14
f 21/25/15 17/23/15 18/26/15
f 18/27/16 19/28/16 2/29/16
f 4/1/17 19/3/17 11/30/17
f 20/31/16 2/32/16 3/33/16
f 20/31/18 21/34/18 18/35/18
f 21/25/19 24/36/19 22/37/19
f 16/20/20 22/37/20 13/18/20
f 22/37/21 14/13/21 13/18/21
f 22/37/22 24/36/22 23/38/22
f 24/39/23 7/10/23 23/40/23
f 24/39/24 3/33/24 6/41/24
f 9/42/25 23/40/25 7/10/25
f 4/1/1 1/4/1 2/2/1
f 5/6/3 6/9/3 3/5/3
f 8/7/4 5/6/4 1/4/4
f 8/7/6 9/42/6 7/10/6
f 4/1/8 11/30/8 10/11/8
f 14/13/9 9/42/9 10/14/9
f 15/16/10 12/15/10 10/14/10
f 13/18/11 12/22/11 15/19/11
f 11/17/14 19/28/14 17/24/14
f 21/25/15 16/20/15 17/23/15
f 18/27/16 17/24/16 19/28/16
f 20/31/26 18/35/26 2/32/26
f 21/25/19 20/43/19 24/36/19
f 16/20/20 21/25/20 22/37/20
f 22/37/21 23/40/21 14/13/21
f 24/39/27 6/41/27 7/10/27
f 24/39/24 20/31/24 3/33/24
f 9/42/25 14/13/25 23/40/25
