# Blender v2.81 (sub 16) OBJ File: 'sw.blend'
# www.blender.org
o Cube.019_Cube.023
v -12.140289 3.191470 16.422356
v -11.791346 3.568427 18.337296
v -14.089062 3.365149 16.743279
v -12.247023 1.252759 16.823441
v -11.898079 1.629714 18.738377
v -14.195794 1.426437 17.144363
v -13.846850 1.803393 19.059299
v -13.740118 3.742105 18.658218
vt 0.996918 0.815146
vt 0.918322 0.892964
vt 0.918322 0.815146
vt 0.406878 0.922182
vt 0.483302 1.000000
vt 0.406878 1.000000
vt 0.821341 0.911166
vt 0.897765 0.988984
vt 0.821341 0.988984
vt 0.923576 0.313604
vt 1.000000 0.391422
vt 0.923576 0.391422
vt 0.918322 0.892964
vt 0.996918 0.970782
vt 0.918322 0.970782
vt 0.793704 0.990503
vt 0.717280 0.912686
vt 0.793704 0.912686
vt 0.996918 0.892964
vt 0.483302 0.922182
vt 0.897765 0.911166
vt 1.000000 0.313604
vt 0.996918 0.892964
vt 0.717280 0.990503
vn 0.9829 -0.0876 -0.1619
vn 0.0538 0.9778 -0.2023
vn -0.1760 -0.1901 -0.9659
vn -0.0538 -0.9778 0.2023
vn -0.9829 0.0876 0.1619
vn 0.1760 0.1901 0.9659
s off
f 5/1/1 1/2/1 2/3/1
f 3/4/2 2/5/2 1/6/2
f 6/7/3 1/8/3 4/9/3
f 7/10/4 4/11/4 5/12/4
f 7/13/5 3/14/5 6/15/5
f 8/16/6 5/17/6 2/18/6
f 5/1/1 4/19/1 1/2/1
f 3/4/2 8/20/2 2/5/2
f 6/7/3 3/21/3 1/8/3
f 7/10/4 6/22/4 4/11/4
f 7/13/5 8/23/5 3/14/5
f 8/16/6 7/24/6 5/17/6
