# Blender v2.81 (sub 16) OBJ File: 'finalMap.blend'
# www.blender.org
o Cube.017_Cube.024
v 29.092194 13.195512 -3.564079
v 28.220716 12.911073 -2.740326
v 29.092194 12.087319 -3.024766
v 29.092194 16.231617 -2.515720
v 53.278999 13.195512 -3.564079
v 53.278999 12.087319 -3.024766
v 54.150478 12.911073 -2.740326
v 53.278999 16.231617 -2.515720
v 54.150478 15.947177 -1.691969
v 53.278999 16.770929 -1.407528
v 29.092194 16.770929 -1.407528
v 53.278999 15.722571 1.628574
v 53.278999 14.901627 1.765570
v 54.150478 15.137738 0.652210
v 29.092194 15.722571 1.628574
v 29.092194 14.901627 1.765570
v 28.220716 15.137738 0.652210
v 28.220716 12.781222 -2.364273
v 28.220716 15.947177 -1.691969
v 29.092194 12.087319 -3.024765
v 29.092194 12.339385 -1.514256
v 53.278999 12.339385 -1.514256
v 54.150478 12.781222 -2.364273
v 53.278999 12.087319 -3.024765
vt 0.133402 0.543970
vt 0.125000 0.706030
vt 0.125000 0.543970
vt 0.133402 0.706030
vt 0.133402 0.750000
vt 0.366598 0.706030
vt 0.366598 0.543970
vt 0.375000 0.706030
vt 0.366598 0.750000
vt 0.474159 0.706030
vt 0.366598 0.500000
vt 0.375000 0.543970
vt 0.567312 0.543970
vt 0.418970 0.491598
vt 0.581030 0.491598
vt 0.581030 0.258402
vt 0.418970 0.258402
vt 0.633402 0.536896
vt 0.866598 0.500000
vt 0.866598 0.536896
vt 0.625000 0.567887
vt 0.633402 0.500000
vt 0.875000 0.567887
vt 0.567312 0.206030
vt 0.866598 0.713104
vt 0.875000 0.729948
vt 0.521051 0.043970
vt 0.429557 0.206030
vt 0.474159 0.043970
vt 0.133402 0.500000
vt 0.500000 0.991598
vt 0.500000 1.000000
vt 0.500000 0.991598
vt 0.625000 0.991598
vt 0.557064 1.000000
vt 0.633402 0.750000
vt 0.633402 0.713104
vt 0.625000 0.729948
vt 0.500000 0.758402
vt 0.521051 0.706030
vt 0.500000 0.758402
vt 0.429557 0.543970
vt 0.866598 0.750000
vn -0.7071 0.2308 -0.6684
vn -0.5774 -0.3573 -0.7342
vn 0.0000 -0.4376 -0.8992
vn 0.0000 0.3264 -0.9452
vn 0.5774 -0.3573 -0.7342
vn 0.7071 0.2308 -0.6684
vn 0.5774 0.7342 -0.3573
vn 0.0000 0.8992 -0.4376
vn 0.7071 0.6684 0.2308
vn 0.0000 0.9452 0.3264
vn 0.0000 0.1646 0.9864
vn 0.7722 0.1046 0.6267
vn -0.7723 0.1046 0.6267
vn -0.7071 0.6684 0.2308
vn -0.7071 -0.5572 0.4353
vn -1.0000 0.0000 0.0000
vn -0.5774 0.7342 -0.3573
vn -0.5512 -0.8230 0.1373
vn 0.0000 -0.9864 0.1646
vn 0.0000 -0.7880 0.6156
vn 0.7071 -0.5572 0.4353
vn 0.5512 -0.8230 0.1373
vn 0.7071 -0.6684 -0.2308
vn 0.0000 -1.0000 0.0000
vn 1.0000 -0.0000 0.0000
vn -0.7071 -0.6684 -0.2308
s off
f 4/1/1 2/2/1 19/3/1
f 1/4/2 3/5/2 2/2/2
f 5/6/3 3/5/3 1/4/3
f 8/7/4 1/4/4 4/1/4
f 5/6/5 7/8/5 6/9/5
f 8/7/6 7/10/6 5/6/6
f 8/7/7 10/11/7 9/12/7
f 4/1/8 10/11/8 8/7/8
f 14/13/9 10/14/9 12/15/9
f 15/16/10 10/14/10 11/17/10
f 13/18/11 15/19/11 16/20/11
f 13/18/12 14/21/12 12/22/12
f 16/20/13 15/19/13 17/23/13
f 11/17/14 17/24/14 15/16/14
f 21/25/15 17/23/15 18/26/15
f 18/27/16 19/28/16 2/29/16
f 4/1/17 19/3/17 11/30/17
f 20/31/16 2/32/16 3/33/16
f 20/31/18 21/34/18 18/35/18
f 21/25/19 24/36/19 22/37/19
f 16/20/20 22/37/20 13/18/20
f 22/37/21 14/13/21 13/18/21
f 22/37/22 24/36/22 23/38/22
f 24/39/23 7/10/23 23/40/23
f 24/39/24 3/33/24 6/41/24
f 9/42/25 23/40/25 7/10/25
f 4/1/1 1/4/1 2/2/1
f 5/6/3 6/9/3 3/5/3
f 8/7/4 5/6/4 1/4/4
f 8/7/6 9/42/6 7/10/6
f 4/1/8 11/30/8 10/11/8
f 14/13/9 9/42/9 10/14/9
f 15/16/10 12/15/10 10/14/10
f 13/18/11 12/22/11 15/19/11
f 11/17/14 19/28/14 17/24/14
f 21/25/15 16/20/15 17/23/15
f 18/27/16 17/24/16 19/28/16
f 20/31/26 18/35/26 2/32/26
f 21/25/19 20/43/19 24/36/19
f 16/20/20 21/25/20 22/37/20
f 22/37/21 23/40/21 14/13/21
f 24/39/25 6/41/25 7/10/25
f 24/39/24 20/31/24 3/33/24
f 9/42/25 14/13/25 23/40/25
