# Blender v2.81 (sub 16) OBJ File: 'sw.blend'
# www.blender.org
o Cube.027_Cube.031
v -22.947464 1.466140 2.174505
v -20.950169 1.466140 0.761835
v -22.947464 3.912530 2.174505
v -21.534794 1.466140 4.171801
v -19.537498 1.466140 2.759130
v -21.534794 3.912530 4.171801
v -19.537498 3.912530 2.759130
v -20.950169 3.912530 0.761835
vt 0.816753 0.552719
vt 0.913651 0.457234
vt 0.913651 0.552719
vt 0.827324 0.820441
vt 0.904753 0.915925
vt 0.827324 0.915925
vt 0.415670 0.821559
vt 0.493099 0.917043
vt 0.415670 0.917043
vt 0.304197 0.828991
vt 0.381626 0.924476
vt 0.304197 0.924476
vt 0.896233 0.688259
vt 0.799335 0.592775
vt 0.896233 0.592775
vt 0.546101 0.821559
vt 0.623530 0.917043
vt 0.546101 0.917043
vt 0.816753 0.457234
vt 0.904753 0.820441
vt 0.493099 0.821559
vt 0.381626 0.828991
vt 0.799335 0.688259
vt 0.623530 0.821559
vn 0.0000 -1.0000 0.0000
vn -0.5775 0.0000 -0.8164
vn -0.8164 0.0000 0.5775
vn 0.5775 0.0000 0.8164
vn 0.0000 1.0000 0.0000
vn 0.8164 0.0000 -0.5775
s off
f 5/1/1 1/2/1 2/3/1
f 3/4/2 2/5/2 1/6/2
f 6/7/3 1/8/3 4/9/3
f 7/10/4 4/11/4 5/12/4
f 7/13/5 3/14/5 6/15/5
f 8/16/6 5/17/6 2/18/6
f 5/1/1 4/19/1 1/2/1
f 3/4/2 8/20/2 2/5/2
f 6/7/3 3/21/3 1/8/3
f 7/10/4 6/22/4 4/11/4
f 7/13/5 8/23/5 3/14/5
f 8/16/6 7/24/6 5/17/6
