# Blender v2.81 (sub 16) OBJ File: 'sw.blend'
# www.blender.org
o Cube.011_Cube.015
v -12.916634 3.865517 -15.334003
v -12.468970 7.183226 -14.411099
v -16.329967 4.169721 -14.771904
v -12.460460 2.885917 -12.033755
v -12.012797 6.203626 -11.110851
v -15.873794 3.190121 -11.471656
v -15.426131 6.507830 -10.548752
v -15.882304 7.487429 -13.849000
vt 0.474975 0.000000
vt 0.612640 0.136300
vt 0.474975 0.136300
vt 0.474975 0.136300
vt 0.608579 0.272601
vt 0.474975 0.272601
vt 0.588930 0.313604
vt 0.722534 0.449904
vt 0.588930 0.449904
vt 0.588930 0.449904
vt 0.722534 0.586204
vt 0.588930 0.586204
vt 0.295310 0.459796
vt 0.432974 0.596096
vt 0.295310 0.596096
vt 0.455327 0.459796
vt 0.588930 0.596096
vt 0.455327 0.596096
vt 0.612640 0.000000
vt 0.608579 0.136300
vt 0.722534 0.313604
vt 0.722534 0.449904
vt 0.432974 0.459796
vt 0.588930 0.459796
vn 0.9829 -0.0876 -0.1619
vn -0.1314 0.2821 -0.9504
vn -0.1289 -0.9554 -0.2658
vn 0.1314 -0.2821 0.9504
vn -0.9829 0.0876 0.1619
vn 0.1289 0.9554 0.2658
s off
f 5/1/1 1/2/1 2/3/1
f 3/4/2 2/5/2 1/6/2
f 6/7/3 1/8/3 4/9/3
f 7/10/4 4/11/4 5/12/4
f 8/13/5 6/14/5 7/15/5
f 8/16/6 5/17/6 2/18/6
f 5/1/1 4/19/1 1/2/1
f 3/4/2 8/20/2 2/5/2
f 6/7/3 3/21/3 1/8/3
f 7/10/4 6/22/4 4/11/4
f 8/13/5 3/23/5 6/14/5
f 8/16/6 7/24/6 5/17/6
