# Blender v2.81 (sub 16) OBJ File: 'sw.blend'
# www.blender.org
o Cube.024_Cube.028
v -29.075390 1.180029 10.155560
v -27.508356 1.180029 7.575554
v -29.075390 4.198642 10.155560
v -26.495382 1.180029 11.722591
v -24.928350 1.180029 9.142586
v -26.495382 4.198642 11.722591
v -24.928350 4.198642 9.142586
v -27.508356 4.198642 7.575554
vt 0.119095 0.602611
vt 0.238658 0.720430
vt 0.119095 0.720430
vt 0.712781 0.457234
vt 0.816753 0.575053
vt 0.712781 0.575053
vt 0.831129 0.117819
vt 0.727156 0.000000
vt 0.831129 0.000000
vt 0.721919 0.311856
vt 0.825891 0.429675
vt 0.721919 0.429675
vt 0.679772 0.592775
vt 0.799335 0.710594
vt 0.679772 0.710594
vt 0.727156 0.117819
vt 0.831129 0.235638
vt 0.727156 0.235638
vt 0.238658 0.602611
vt 0.816753 0.457234
vt 0.727156 0.117819
vt 0.825891 0.311856
vt 0.799335 0.592775
vt 0.831129 0.117819
vn 0.0000 -1.0000 0.0000
vn -0.8547 0.0000 -0.5191
vn -0.5191 0.0000 0.8547
vn 0.8547 0.0000 0.5191
vn 0.0000 1.0000 0.0000
vn 0.5191 0.0000 -0.8547
s off
f 2/1/1 4/2/1 1/3/1
f 3/4/2 2/5/2 1/6/2
f 6/7/3 1/8/3 4/9/3
f 7/10/4 4/11/4 5/12/4
f 8/13/5 6/14/5 7/15/5
f 8/16/6 5/17/6 2/18/6
f 2/1/1 5/19/1 4/2/1
f 3/4/2 8/20/2 2/5/2
f 6/7/3 3/21/3 1/8/3
f 7/10/4 6/22/4 4/11/4
f 8/13/5 3/23/5 6/14/5
f 8/16/6 7/24/6 5/17/6
