# Blender v2.81 (sub 16) OBJ File: 'sw.blend'
# www.blender.org
o Cube.016_Cube.020
v -11.976640 7.218662 6.933662
v -11.529234 8.597520 8.904297
v -14.381239 7.432965 7.329647
v -11.926079 5.209272 8.328159
v -11.478672 6.588130 10.298794
v -14.330677 5.423574 8.724144
v -13.883271 6.802432 10.694778
v -13.933832 8.811823 9.300282
vt 0.821341 0.815146
vt 0.918322 0.911166
vt 0.821341 0.911166
vt 0.196692 0.827456
vt 0.274186 0.923476
vt 0.196692 0.923476
vt 0.484373 0.922182
vt 0.406878 0.826162
vt 0.484373 0.826162
vt 0.196692 0.923476
vt 0.119197 0.827456
vt 0.196692 0.827456
vt 0.826596 0.409624
vt 0.923576 0.313604
vt 0.923576 0.409624
vt 0.561868 0.922182
vt 0.484373 0.826162
vt 0.561868 0.826162
vt 0.918321 0.815146
vt 0.274186 0.827456
vt 0.406878 0.922182
vt 0.119197 0.923476
vt 0.826595 0.313604
vt 0.484373 0.922182
vn 0.9829 -0.0876 -0.1619
vn -0.0207 0.8214 -0.5700
vn -0.1829 -0.5636 -0.8055
vn 0.0207 -0.8214 0.5700
vn -0.9829 0.0876 0.1619
vn 0.1829 0.5636 0.8055
s off
f 5/1/1 1/2/1 2/3/1
f 3/4/2 2/5/2 1/6/2
f 6/7/3 1/8/3 4/9/3
f 7/10/4 4/11/4 5/12/4
f 7/13/5 3/14/5 6/15/5
f 8/16/6 5/17/6 2/18/6
f 5/1/1 4/19/1 1/2/1
f 3/4/2 8/20/2 2/5/2
f 6/7/3 3/21/3 1/8/3
f 7/10/4 6/22/4 4/11/4
f 7/13/5 8/23/5 3/14/5
f 8/16/6 7/24/6 5/17/6
