# Blender v2.81 (sub 16) OBJ File: 'sw.blend'
# www.blender.org
o Cube.041_Cube.045
v -4.521252 6.523690 37.724255
v -6.240314 6.523690 38.712021
v -4.521252 8.506330 37.724255
v -5.509022 6.523690 36.005188
v -7.228081 6.523690 36.992958
v -5.509022 8.506330 36.005188
v -7.228081 8.506330 36.992958
v -6.240314 8.506330 38.712021
vt 0.996918 0.815146
vt 0.918322 0.892964
vt 0.918322 0.815146
vt 0.406878 0.922182
vt 0.483302 1.000000
vt 0.406878 1.000000
vt 0.821341 0.911166
vt 0.897765 0.988984
vt 0.821341 0.988984
vt 0.923576 0.313604
vt 1.000000 0.391422
vt 0.923576 0.391422
vt 0.918322 0.892964
vt 0.996918 0.970782
vt 0.918322 0.970782
vt 0.793704 0.990503
vt 0.717280 0.912686
vt 0.793704 0.912686
vt 0.996918 0.892964
vt 0.483302 0.922182
vt 0.897765 0.911166
vt 1.000000 0.313604
vt 0.996918 0.892964
vt 0.717280 0.990503
vn 0.0000 -1.0000 0.0000
vn 0.4982 0.0000 0.8671
vn 0.8671 0.0000 -0.4982
vn -0.4982 0.0000 -0.8671
vn 0.0000 1.0000 0.0000
vn -0.8671 0.0000 0.4982
s off
f 5/1/1 1/2/1 2/3/1
f 3/4/2 2/5/2 1/6/2
f 6/7/3 1/8/3 4/9/3
f 7/10/4 4/11/4 5/12/4
f 7/13/5 3/14/5 6/15/5
f 8/16/6 5/17/6 2/18/6
f 5/1/1 4/19/1 1/2/1
f 3/4/2 8/20/2 2/5/2
f 6/7/3 3/21/3 1/8/3
f 7/10/4 6/22/4 4/11/4
f 7/13/5 8/23/5 3/14/5
f 8/16/6 7/24/6 5/17/6
