# Blender v2.81 (sub 16) OBJ File: 'sw.blend'
# www.blender.org
o Cube.039_Cube.043
v 1.990759 5.659446 38.788475
v 0.392607 5.659446 40.415806
v 1.990759 7.940305 38.788475
v 0.363426 5.659446 37.190315
v -1.234730 5.659446 38.817650
v 0.363426 7.940305 37.190315
v -1.234730 7.940305 38.817650
v 0.392607 7.940305 40.415806
vt 0.917014 0.409624
vt 0.826595 0.499146
vt 0.826595 0.409624
vt 0.909086 0.000000
vt 0.988060 0.089523
vt 0.909086 0.089523
vt 0.078975 0.933051
vt 0.000000 0.843528
vt 0.078975 0.843528
vt 0.295310 0.833637
vt 0.374285 0.923159
vt 0.295310 0.923159
vt 0.717280 0.823163
vt 0.807698 0.912686
vt 0.717280 0.912686
vt 0.905676 0.136300
vt 0.984651 0.225823
vt 0.905676 0.225823
vt 0.917014 0.499146
vt 0.988060 0.000000
vt 0.000000 0.933051
vt 0.374285 0.833637
vt 0.807698 0.823163
vt 0.984651 0.136300
vn 0.0000 -1.0000 0.0000
vn 0.7135 0.0000 0.7007
vn 0.7007 0.0000 -0.7135
vn -0.7135 0.0000 -0.7007
vn 0.0000 1.0000 0.0000
vn -0.7007 0.0000 0.7135
s off
f 5/1/1 1/2/1 2/3/1
f 3/4/2 2/5/2 1/6/2
f 6/7/3 1/8/3 4/9/3
f 7/10/4 4/11/4 5/12/4
f 7/13/5 3/14/5 6/15/5
f 8/16/6 5/17/6 2/18/6
f 5/1/1 4/19/1 1/2/1
f 3/4/2 8/20/2 2/5/2
f 6/7/3 3/21/3 1/8/3
f 7/10/4 6/22/4 4/11/4
f 7/13/5 8/23/5 3/14/5
f 8/16/6 7/24/6 5/17/6
