# Blender v2.81 (sub 16) OBJ File: 'finalMap.blend'
# www.blender.org
o Cube.028_Cube.035
v -11.416157 2.046049 -22.483849
v -10.118396 2.046049 -24.551105
v -11.416157 2.371613 -22.483849
v -9.348898 2.046049 -21.186085
v -8.051137 2.046049 -23.253345
v -9.348898 2.371613 -21.186085
v -8.051137 2.371613 -23.253345
v -10.118396 2.371613 -24.551105
vt 0.375000 0.500000
vt 0.125000 0.750000
vt 0.125000 0.500000
vt 0.625000 0.000000
vt 0.375000 0.250000
vt 0.375000 0.000000
vt 0.625000 0.750000
vt 0.375000 1.000000
vt 0.375000 0.750000
vt 0.625000 0.500000
vt 0.875000 0.750000
vt 0.625000 0.250000
vt 0.625000 1.000000
vt 0.875000 0.500000
vn 0.0000 -1.0000 0.0000
vn -0.8469 0.0000 -0.5317
vn -0.5317 0.0000 0.8469
vn 0.8469 0.0000 0.5317
vn 0.0000 1.0000 0.0000
vn 0.5317 0.0000 -0.8469
s off
f 5/1/1 1/2/1 2/3/1
f 3/4/2 2/5/2 1/6/2
f 6/7/3 1/8/3 4/9/3
f 7/10/4 4/9/4 5/1/4
f 7/10/5 3/11/5 6/7/5
f 8/12/6 5/1/6 2/5/6
f 5/1/1 4/9/1 1/2/1
f 3/4/2 8/12/2 2/5/2
f 6/7/3 3/13/3 1/8/3
f 7/10/4 6/7/4 4/9/4
f 7/10/5 8/14/5 3/11/5
f 8/12/6 7/10/6 5/1/6
