# Blender v2.81 (sub 16) OBJ File: 'finalMap.blend'
# www.blender.org
o tombe.047_Cube
v -32.881729 -2.771362 10.591440
v -32.881729 -0.457276 10.591440
v -32.573181 -2.771362 10.591440
v -32.573181 -0.457276 10.591440
v -32.881729 -2.771362 12.134165
v -32.881729 -0.457276 12.134165
v -32.573181 -2.771362 12.134165
v -32.573181 -0.457276 12.134165
vt 0.333333 0.000000
vt 0.666667 0.500000
vt 0.333334 0.500000
vt 0.333333 1.000000
vt 0.000000 0.500000
vt 0.333333 0.500000
vt 0.000000 0.000000
vt 0.333333 0.500000
vt 0.666667 0.000000
vt 1.000000 0.500000
vt 0.666667 0.500000
vt 0.666667 0.833333
vt 1.000000 0.833333
vt 0.666667 0.833333
vt 0.333333 0.500000
vt 0.666667 0.500000
vt 0.666667 0.000000
vt 0.000000 1.000000
vt 0.333333 0.000000
vt 1.000000 0.000000
vt 0.333333 0.833333
vn 0.0000 0.0000 -1.0000
vn 1.0000 0.0000 0.0000
vn 0.0000 0.0000 1.0000
vn -1.0000 0.0000 0.0000
vn 0.0000 -1.0000 0.0000
vn 0.0000 1.0000 0.0000
s off
f 2/1/1 3/2/1 1/3/1
f 4/4/2 7/5/2 3/6/2
f 8/7/3 5/8/3 7/5/3
f 6/9/4 1/10/4 5/11/4
f 7/12/5 1/10/5 3/13/5
f 4/14/6 6/15/6 8/16/6
f 2/1/1 4/17/1 3/2/1
f 4/4/2 8/18/2 7/5/2
f 8/7/3 6/19/3 5/8/3
f 6/9/4 2/20/4 1/10/4
f 7/12/5 5/11/5 1/10/5
f 4/14/6 2/21/6 6/15/6
