# Blender v2.81 (sub 16) OBJ File: 'finalMap.blend'
# www.blender.org
o wall4_Cube.001
v -50.595150 5.484364 47.373981
v -51.135082 5.827161 42.883259
v -51.599400 5.442342 31.693499
v -51.181450 5.991018 31.772264
v -50.343704 5.820582 21.519560
v -50.592857 5.788357 18.414379
v -51.951363 5.264812 3.115528
v -50.220047 5.254170 0.290310
v -50.444305 5.256143 -1.697176
v -51.034031 5.270108 -3.874831
v -51.207565 5.550622 -8.225500
v -51.207561 5.379913 -10.447577
v -51.207554 5.274783 -12.670530
v -51.207558 5.780106 -14.891163
v -51.204433 5.254034 -23.789677
v -51.024128 5.254064 -26.004013
v -50.883636 5.254015 -28.220549
v -52.000027 -2.000000 -52.000004
v -52.000027 6.000000 -52.000004
v -50.000023 -2.000000 -50.000000
v -50.000023 6.000000 -50.000000
v -51.999973 -2.000000 52.000004
v -51.999973 6.000000 52.000004
v -49.999977 -2.000000 50.000000
v -49.999977 6.000000 50.000000
v -50.992523 6.000000 22.036512
v -49.999989 6.000000 22.091799
v -49.999989 5.957174 21.959774
v -50.618919 6.000000 21.622028
v -51.999985 5.613274 31.264061
v -51.999985 6.000000 31.474337
v -51.823040 6.000000 31.705070
v -51.181431 6.000000 31.675253
v -51.999985 6.000000 30.189764
v -49.999985 6.000000 31.558838
v -49.999985 5.986973 31.576611
v -49.999981 5.549560 33.191673
v -51.999981 5.639456 32.369083
v -51.999985 6.000000 32.074589
v -51.999985 6.000000 32.743633
v -51.236454 6.000000 31.846243
v -51.999985 5.990666 34.495258
v -51.999981 6.000000 34.382290
v -49.999985 5.482483 34.003601
v -51.999981 6.000000 34.551319
v -51.077461 6.000000 35.732452
v -49.999985 5.565939 34.504864
v -49.999985 6.000000 34.351997
v -50.987328 6.000000 42.920361
v -51.074532 6.000000 42.363113
v -51.999977 5.861452 43.106735
v -51.999977 6.000000 42.653557
v -50.971230 6.000000 43.827187
v -50.328411 6.000000 47.370979
v -50.697914 6.000000 45.837845
v -51.999977 6.000000 44.092754
v -51.999977 5.771902 46.151596
v -51.999977 6.000000 46.456059
v -51.218872 6.000000 47.349110
v -51.999977 6.000000 45.484413
v -50.832012 6.000000 48.540100
v -50.088875 6.000000 -14.885559
v -50.142021 6.000000 -12.686819
v -50.498409 6.000000 -10.445179
v -51.207558 6.000000 -16.137226
v -52.000008 5.979925 -14.899464
v -52.000008 6.000000 -15.013226
v -52.000008 5.139025 -12.684944
v -52.000004 5.378655 -10.461736
v -52.000004 5.733305 -8.232017
v -50.682682 6.000000 -8.252547
v -50.000000 6.000000 -7.351448
v -50.000004 5.563070 -6.651521
v -52.000004 6.000000 -6.685368
v -51.419834 6.000000 -5.962786
v -50.000000 5.675299 -6.020394
v -52.000004 5.703885 -4.533503
v -52.000000 6.000000 -5.504269
v -50.000000 5.261587 -3.907275
v -50.000000 5.255530 -1.705618
v -49.999996 5.254151 0.319637
v -50.000000 5.267704 3.021532
v -52.000000 5.260935 0.408958
v -52.000000 5.259568 -1.656871
v -52.000004 5.266309 -3.857192
v -52.000000 5.290679 3.103064
v -52.000000 5.421797 3.118837
v -50.000000 6.000000 3.923710
v -52.000000 5.355178 3.138554
v -52.000000 6.000000 3.612122
v -49.999996 6.000000 6.163937
v -50.195679 6.000000 7.054117
v -49.999996 5.843135 7.012851
v -50.000000 6.000000 7.242237
v -51.999996 5.982444 13.847703
v -51.999992 6.000000 13.317682
v -51.954987 6.000000 13.850127
v -51.999992 6.000000 13.957684
v -51.218792 6.000000 17.503918
v -50.448326 6.000000 18.415701
v -50.857567 6.000000 18.430729
v -50.215057 6.000000 21.426538
v -49.999992 6.000000 21.873718
v -51.349747 6.000000 -23.792330
v -51.698612 6.000000 -22.637821
v -50.000015 6.000000 -23.181961
v -50.000008 5.641201 -23.777416
v -50.000011 6.000000 -27.033617
v -50.000015 5.582240 -25.994495
v -51.001263 6.000000 -28.283131
v -51.078587 6.000000 -26.003548
v -50.077606 6.000000 -28.205761
v -52.000019 5.553237 -34.960339
v -50.000015 5.827668 -34.894863
v -52.000019 6.000000 -37.018154
v -51.998642 6.000000 -37.018948
v -50.000015 5.592580 -37.076733
v -50.000015 6.000000 -34.443680
v -52.000019 5.789942 -32.797203
v -51.519650 6.000000 -32.760399
v -52.000015 6.000000 -32.162357
v -52.000015 5.979477 -29.983780
v -52.000015 6.000000 -29.980007
v -52.000015 6.000000 -30.019146
v -52.000023 5.275009 -41.629578
v -50.000019 5.435630 -41.565380
v -52.000023 6.000000 -37.020866
v -50.000023 5.489308 -43.773499
v -52.000019 5.702816 -39.352783
v -50.000015 5.603491 -39.325951
v -52.000019 5.259284 -42.179527
v -52.000023 5.172510 -43.920979
v -52.000027 5.478403 -47.924248
v -50.000019 6.000000 -48.843781
v -50.000023 5.639805 -46.711494
v -52.000027 5.639658 -50.434032
v -50.551445 6.000000 -50.415157
v -52.000023 5.408839 -47.374504
v -52.000023 5.370577 -46.117825
v -50.000023 5.709008 -45.831444
v -52.000023 5.537627 -50.961357
v -50.491486 6.000000 -50.491463
v -51.498878 5.557025 -51.498856
v -52.000027 6.000000 -51.767025
v -51.883835 6.000000 -51.883812
vt 0.000000 0.000000
vt 0.000000 0.000000
vt 0.000000 0.000000
vt 0.000000 0.000000
vt 0.000000 0.000000
vt 0.000000 0.000000
vt 0.000000 0.000000
vt 0.000000 0.000000
vt 0.000000 0.000000
vt 0.000000 0.000000
vt 0.000000 0.000000
vt 0.000000 0.000000
vt 0.000000 0.000000
vt 0.000000 0.000000
vt 0.000000 0.000000
vt 0.000000 0.000000
vt 0.000000 0.000000
vt 0.000000 0.000000
vt 0.000000 0.000000
vt 0.000000 0.000000
vt 0.000000 0.000000
vt 0.000000 0.000000
vt 0.000000 0.000000
vt 0.000000 0.000000
vt 0.000000 0.000000
vt 0.000000 0.000000
vt 0.000000 0.000000
vt 0.000000 0.000000
vt 0.000000 0.000000
vt 0.000000 0.000000
vt 0.000000 0.000000
vt 0.000000 0.000000
vt 0.000000 0.000000
vt 0.000000 0.000000
vt 0.000000 0.000000
vt 0.000000 0.000000
vt 0.000000 0.000000
vt 0.000000 0.000000
vt 0.000000 0.000000
vt 0.000000 0.000000
vt 0.416706 0.004819
vt 0.428571 0.019231
vt 0.214286 0.019231
vt 0.408630 0.483601
vt 0.408593 0.503073
vt 0.428571 0.980769
vt 0.214286 1.000000
vt 0.214286 0.980769
vt 0.642857 1.000000
vt 0.837285 0.515512
vt 0.837466 0.536703
vt 0.964286 0.019231
vt 1.000000 1.000000
vt 0.964286 0.980769
vt 0.661009 0.164950
vt 0.584215 0.323543
vt 0.617944 0.219582
vt 0.000000 0.000000
vt 0.000000 0.000000
vt 0.000000 0.000000
vt 0.000000 0.000000
vt 0.000000 0.000000
vt 0.000000 0.000000
vt 0.000000 0.000000
vt 0.000000 0.000000
vt 0.000000 0.000000
vt 0.000000 0.000000
vt 0.000000 0.000000
vt 0.000000 0.000000
vt 0.000000 0.000000
vt 0.000000 0.000000
vt 0.000000 0.000000
vt 0.000000 0.000000
vt 0.000000 0.000000
vt 0.000000 0.000000
vt 0.000000 0.000000
vt 0.000000 0.000000
vt 0.000000 0.000000
vt 0.000000 0.000000
vt 0.000000 0.000000
vt 0.000000 0.000000
vt 0.000000 0.000000
vt 0.000000 0.000000
vt 0.000000 0.000000
vt 0.000000 0.000000
vt 0.000000 0.000000
vt 0.000000 0.000000
vt 0.000000 0.000000
vt 0.000000 0.000000
vt 0.000000 0.000000
vt 0.000000 0.000000
vt 0.000000 0.000000
vt 0.000000 0.000000
vt 0.000000 0.000000
vt 0.000000 0.000000
vt 0.000000 0.000000
vt 0.000000 0.000000
vt 0.000000 0.000000
vt 0.000000 0.000000
vt 0.000000 0.000000
vt 0.000000 0.000000
vt 0.000000 0.000000
vt 0.000000 0.000000
vt 0.000000 0.000000
vt 0.000000 0.000000
vt 0.000000 0.000000
vt 0.000000 0.000000
vt 0.000000 0.000000
vt 0.000000 0.000000
vt 0.000000 0.000000
vt 0.000000 0.000000
vt 0.000000 0.000000
vt 0.000000 0.000000
vt 0.000000 0.000000
vt 0.000000 0.000000
vt 0.000000 0.000000
vt 0.987441 0.000000
vt 0.987441 0.094376
vt 0.932383 0.055913
vt 0.719910 0.285439
vt 0.699287 0.272272
vt 0.719910 0.264050
vt 0.005246 0.635179
vt 0.091047 0.504981
vt 0.180843 0.472490
vt 1.000000 0.136463
vt 0.932383 0.120125
vt 1.000000 0.094376
vt 0.325455 0.313072
vt 0.455834 0.268470
vt 0.466191 0.564104
vt 0.932383 0.264050
vt 0.755273 0.204068
vt 0.923339 0.041768
vt 0.733452 0.264056
vt 0.733636 0.264050
vt 0.733636 0.264134
vt 0.733452 0.272352
vt 0.719910 0.268190
vt 0.733452 0.264050
vt 0.977003 0.138321
vt 0.932383 0.158787
vt 0.967464 0.136463
vt 0.000000 0.000000
vt 0.000000 0.000000
vt 0.000000 0.000000
vt 0.000000 0.000000
vt 0.000000 0.000000
vt 0.214286 0.000000
vt 0.428571 0.000000
vt 0.428571 0.001117
vt 0.428571 0.014505
vt 0.428571 0.030348
vt 0.418923 0.050872
vt 0.420777 0.059314
vt 0.414892 0.079102
vt 0.416945 0.831782
vt 0.414709 0.826958
vt 0.416506 0.819151
vt 0.428571 0.830308
vt 0.413454 0.100324
vt 0.417950 0.121867
vt 0.417658 0.143493
vt 0.427424 0.711147
vt 0.408956 0.529051
vt 0.423955 0.164472
vt 0.428571 0.168811
vt 0.428571 0.240061
vt 0.428222 0.803621
vt 0.428571 0.712421
vt 0.428571 0.803450
vt 0.428571 0.569637
vt 0.428571 0.710324
vt 0.424370 0.567432
vt 0.417381 0.250055
vt 0.428571 0.537728
vt 0.428571 0.559269
vt 0.418961 0.271382
vt 0.428571 0.277097
vt 0.416868 0.436043
vt 0.428571 0.429313
vt 0.419874 0.442114
vt 0.408792 0.462429
vt 0.428571 1.000000
vt 0.642857 0.000000
vt 0.837369 0.496472
vt 0.857142 0.000000
vt 0.857142 0.053307
vt 0.851032 0.056196
vt 0.857142 0.062650
vt 0.857142 0.076031
vt 0.853439 0.087087
vt 0.857142 0.089870
vt 0.857142 0.167776
vt 0.857142 0.997760
vt 0.857142 1.000000
vt 0.844754 0.990063
vt 0.843175 0.960774
vt 0.847494 0.984931
vt 0.846784 0.199385
vt 0.847485 0.188760
vt 0.856893 0.168314
vt 0.857142 0.169401
vt 0.857142 0.185157
vt 0.857142 0.191590
vt 0.857143 0.197362
vt 0.834978 0.922311
vt 0.840283 0.943436
vt 0.841304 0.955538
vt 0.857143 0.209714
vt 0.857143 0.365791
vt 0.856671 0.365974
vt 0.857143 0.371945
vt 0.838162 0.470558
vt 0.857142 0.465268
vt 0.839888 0.470218
vt 0.837725 0.900284
vt 0.837305 0.905531
vt 0.857143 0.855970
vt 0.849182 0.878423
vt 0.845176 0.836151
vt 0.857143 0.855944
vt 0.857143 0.788646
vt 0.857143 0.809253
vt 0.856593 0.788359
vt 0.851516 0.815318
vt 0.857143 0.644358
vt 0.857143 0.788269
vt 0.841672 0.470443
vt 0.834100 0.622162
vt 0.856605 0.643373
vt 0.840500 0.600597
vt 0.849999 0.579161
vt 0.857142 0.552926
vt 0.857142 0.564282
vt 0.849221 0.544008
vt 1.000000 0.000000
vt 0.699287 0.071268
vt 0.699287 0.628868
vt 0.573710 0.579677
vt 0.574051 0.343400
vt 0.466192 0.621765
vt 0.466193 0.333051
vt 0.557228 0.165730
vt 0.466192 0.197553
vt 0.602315 0.123290
vt 0.466192 0.000000
vt 0.586090 0.291230
vt 0.466192 0.281766
vt 0.466192 0.232176
vt 0.000000 0.000000
vt 0.000000 0.000000
vt 0.000000 0.000000
vt 0.000000 0.631347
vt 0.000000 0.052934
vt 0.117418 0.343466
vt 0.095401 0.000000
vt 0.233096 0.004148
vt 0.233096 0.341496
vt 0.160961 0.358236
vt 0.133147 0.471955
vt 0.000000 1.000000
vt 0.000000 0.654153
vt 0.210289 0.877348
vt 0.233095 0.870645
vt 0.233095 0.909069
vt 0.233095 0.988897
vt 0.233095 0.349267
vt 0.208030 0.365202
vt 0.449640 0.190120
vt 0.408103 0.110242
vt 0.466192 0.000000
vt 0.386627 0.032110
vt 0.268224 0.544714
vt 0.308883 0.585853
vt 0.233097 0.806345
vt 0.340487 0.664648
vt 0.349499 0.745878
vt 0.233096 0.273019
vt 0.699287 0.182757
vt 0.699287 0.106386
vt 0.932383 0.000000
vt 0.977003 0.197663
vn 0.2638 0.9613 0.0794
vn 0.0008 1.0000 -0.0050
vn 0.0084 1.0000 0.0041
vn 0.0014 1.0000 0.0008
vn 0.0977 0.7727 -0.6272
vn -0.7615 0.6481 0.0135
vn -0.8303 0.4274 -0.3577
vn 0.0465 0.9642 0.2611
vn -0.8243 0.5625 0.0639
vn -0.6796 0.6567 0.3269
vn -0.5729 0.6953 0.4340
vn -0.5613 0.8228 -0.0892
vn -0.6571 0.7517 -0.0552
vn -0.3049 0.9521 -0.0253
vn -0.2880 0.8885 0.3572
vn -0.2607 0.8269 -0.4983
vn -0.1928 0.9812 -0.0047
vn 0.7071 0.0000 -0.7071
vn 1.0000 0.0000 -0.0000
vn 0.7071 0.0000 0.7071
vn -1.0000 0.0000 0.0000
vn 0.0000 -1.0000 0.0000
vn 0.0000 1.0000 0.0000
vn 0.0022 1.0000 -0.0007
vn -0.8680 0.4503 0.2092
vn -0.3525 0.9241 -0.1475
vn -0.7672 0.6301 0.1201
vn -0.6783 0.4597 0.5732
vn 0.4770 0.7255 -0.4961
vn 0.5352 0.8438 -0.0400
vn 0.9868 0.1584 0.0335
vn -0.0359 0.9896 -0.1391
vn 0.7004 0.2026 0.6844
vn -0.7981 0.6000 0.0554
vn 0.0581 0.8052 0.5902
vn 0.8506 0.3327 0.4073
vn -0.1909 0.9667 0.1706
vn -0.7704 -0.2118 -0.6013
vn 0.9409 0.1843 0.2843
vn -0.3647 0.9306 0.0308
vn 0.6371 0.7579 0.1401
vn 0.5922 0.6036 0.5338
vn 0.2228 0.9607 -0.1657
vn 0.9744 0.1902 0.1195
vn -0.4280 0.7817 0.4537
vn 0.1127 0.9502 0.2905
vn 0.2058 0.9653 -0.1607
vn 0.7534 0.3141 -0.5777
vn 0.2247 0.9320 0.2843
vn -0.0039 1.0000 0.0031
vn -0.2738 0.7697 -0.5767
vn 0.0066 0.8396 0.5432
vn 0.2393 0.9562 0.1687
vn -0.1660 0.9804 -0.1057
vn 0.3030 0.1138 -0.9462
vn 0.4715 0.8818 -0.0097
vn 0.5984 0.7665 -0.2332
vn 0.2260 0.9107 0.3458
vn 0.2232 0.9627 -0.1531
vn 0.8581 0.0929 -0.5050
vn 0.6286 0.7505 -0.2042
vn -0.6318 0.5585 -0.5376
vn -0.6318 0.5584 -0.5376
vn -0.0017 1.0000 -0.0048
vn 0.0014 1.0000 0.0028
vn -0.0000 1.0000 0.0007
vn -0.0408 0.5574 -0.8292
vn 0.5833 0.4808 -0.6546
vn -0.7969 0.6013 0.0577
vn -0.6796 0.6567 0.3268
vn 0.0172 0.9511 -0.3085
vn -0.6578 0.7524 -0.0356
vn -0.6510 0.7569 -0.0581
vn -0.3057 0.9518 -0.0249
vn -0.6790 0.7328 0.0449
vn -0.6136 0.7887 -0.0389
vn -0.1889 0.7853 -0.5896
vn -0.5510 0.8137 0.1852
vn 0.7071 0.0001 -0.7071
vn 1.0000 -0.0001 -0.0000
vn -1.0000 -0.0001 0.0000
vn -1.0000 0.0000 0.0001
vn -1.0000 0.0003 -0.0000
vn -1.0000 0.0004 0.0000
vn -0.9999 0.0125 0.0014
vn -1.0000 0.0001 0.0000
vn 0.0038 1.0000 0.0006
vn 0.6212 0.7815 -0.0580
vn 0.9954 0.0726 0.0631
vn -0.0072 0.9838 -0.1789
vn -0.5237 0.8016 0.2886
vn -0.5607 0.4431 0.6994
vn 0.0187 0.9956 0.0922
vn 0.2130 0.9620 -0.1711
vn 0.9941 0.0725 0.0809
vn -0.5534 0.5863 0.5916
vn 0.1018 0.9404 0.3243
vn 0.0141 0.9813 0.1921
vn 0.0024 1.0000 0.0058
vn 0.6175 0.7572 0.2129
vn -0.0875 0.9426 0.3223
vn -0.0007 0.9989 -0.0472
vn 0.0037 1.0000 -0.0015
vn -0.1686 0.9611 0.2187
vn -0.0002 0.9971 -0.0766
s off
f 41/1/1 37/2/1 4/3/1
f 8/4/2 82/5/2 81/6/2
f 9/7/3 79/8/3 10/9/3
f 8/4/4 80/10/4 9/7/4
f 90/11/5 88/12/5 82/5/5
f 2/13/6 53/14/6 49/15/6
f 1/16/7 61/17/7 54/18/7
f 4/3/8 37/2/8 36/19/8
f 6/20/9 102/21/9 100/22/9
f 28/23/10 103/24/10 5/25/10
f 11/26/11 72/27/11 71/28/11
f 13/29/12 64/30/12 63/31/12
f 12/32/13 71/28/13 64/30/13
f 16/33/14 107/34/14 109/35/14
f 16/33/15 109/35/15 108/36/15
f 15/37/16 106/38/16 107/34/16
f 14/39/17 63/31/17 62/40/17
f 143/41/18 21/42/18 20/43/18
f 20/43/19 80/44/19 81/45/19
f 25/46/20 22/47/20 24/48/20
f 18/49/21 84/50/21 85/51/21
f 24/52/22 18/53/22 20/54/22
f 54/55/23 49/56/23 55/57/23
f 83/58/24 9/7/24 84/59/24
f 55/60/25 1/16/25 54/18/25
f 97/61/26 95/62/26 98/63/26
f 50/64/27 2/13/27 49/15/27
f 99/65/28 6/20/28 100/22/28
f 93/66/29 92/67/29 94/68/29
f 5/25/30 101/69/30 29/70/30
f 111/71/31 17/72/31 110/73/31
f 53/14/32 51/74/32 56/75/32
f 89/76/33 7/77/33 87/78/33
f 3/79/34 4/3/34 33/80/34
f 33/80/35 36/19/35 35/81/35
f 3/79/36 39/82/36 38/83/36
f 65/84/37 14/39/37 62/40/37
f 47/85/38 46/86/38 48/87/38
f 105/88/39 15/37/39 104/89/39
f 95/62/40 97/61/40 96/90/40
f 92/67/41 93/66/41 91/91/41
f 26/92/42 5/25/42 29/70/42
f 11/26/43 70/93/43 74/94/43
f 15/37/44 111/71/44 104/89/44
f 122/95/45 112/96/45 124/97/45
f 2/13/46 52/98/46 51/74/46
f 47/85/47 42/99/47 45/100/47
f 32/101/48 30/102/48 31/103/48
f 76/104/49 75/105/49 10/9/49
f 84/59/50 10/9/50 85/106/50
f 57/107/51 58/108/51 55/60/51
f 85/106/52 10/9/52 77/109/52
f 14/39/53 67/110/53 66/111/53
f 69/112/54 13/29/54 68/113/54
f 87/78/55 7/77/55 86/114/55
f 7/77/56 83/58/56 86/114/56
f 101/69/57 6/20/57 99/65/57
f 68/113/58 14/39/58 66/111/58
f 11/26/59 69/112/59 70/93/59
f 110/73/60 122/95/60 123/115/60
f 61/17/61 1/16/61 59/116/61
f 43/117/23 41/118/23 40/119/23
f 39/120/23 32/121/23 31/122/23
f 97/123/23 99/124/23 100/125/23
f 78/126/23 75/127/23 74/128/23
f 65/129/23 62/130/23 106/131/23
f 118/132/23 120/133/23 112/134/23
f 115/135/23 116/136/23 127/137/23
f 144/138/23 145/139/23 19/140/23
f 137/141/23 21/142/23 142/143/23
f 4/3/62 3/79/62 41/1/62
f 3/79/63 38/83/63 41/1/63
f 38/83/62 40/144/62 41/1/62
f 41/1/1 43/145/1 37/2/1
f 43/145/1 42/99/1 44/146/1
f 37/2/1 43/145/1 44/146/1
f 8/4/64 7/77/64 82/5/64
f 9/7/65 80/10/65 79/8/65
f 8/4/66 81/6/66 80/10/66
f 82/5/67 7/77/67 90/11/67
f 7/77/68 89/76/68 90/11/68
f 6/20/69 5/25/69 102/21/69
f 102/21/70 5/25/70 103/24/70
f 5/25/71 26/92/71 28/23/71
f 26/92/71 27/147/71 28/23/71
f 11/26/11 73/148/11 72/27/11
f 13/29/72 12/32/72 64/30/72
f 12/32/73 11/26/73 71/28/73
f 16/33/74 15/37/74 107/34/74
f 112/96/75 17/72/75 108/36/75
f 17/72/76 16/33/76 108/36/76
f 15/37/77 105/88/77 106/38/77
f 14/39/78 13/29/78 63/31/78
f 20/43/18 18/149/18 143/41/18
f 18/149/18 19/150/18 143/41/18
f 19/150/79 145/151/79 143/41/79
f 143/41/18 142/152/18 21/42/18
f 20/43/19 21/42/19 134/153/19
f 135/154/19 140/155/19 20/43/19
f 140/155/19 128/156/19 20/43/19
f 20/43/19 134/153/19 135/154/19
f 25/46/19 24/48/19 47/157/19
f 24/48/19 20/43/19 81/45/19
f 44/158/19 24/48/19 37/159/19
f 47/157/19 48/160/19 25/46/19
f 44/158/19 47/157/19 24/48/19
f 126/161/19 130/162/19 20/43/19
f 130/162/19 117/163/19 20/43/19
f 20/43/19 128/156/19 126/161/19
f 37/159/19 24/48/19 28/164/19
f 28/164/19 24/48/19 82/165/19
f 114/166/19 118/167/19 108/168/19
f 20/43/19 117/163/19 114/166/19
f 36/169/19 37/159/19 28/164/19
f 27/170/80 35/171/80 36/169/80
f 94/172/19 103/173/19 93/174/19
f 103/173/19 28/164/19 93/174/19
f 28/164/19 27/170/19 36/169/19
f 20/43/19 114/166/19 109/175/19
f 114/166/19 108/168/19 109/175/19
f 82/165/19 24/48/19 81/45/19
f 88/176/19 91/177/19 82/165/19
f 91/177/19 93/174/19 82/165/19
f 20/43/19 109/175/19 107/178/19
f 107/178/19 106/179/19 73/180/19
f 106/179/19 72/181/19 73/180/19
f 73/180/19 76/182/19 79/183/19
f 82/165/19 93/174/19 28/164/19
f 20/43/19 107/178/19 73/180/19
f 20/43/19 73/180/19 79/183/19
f 20/43/19 79/183/19 80/44/19
f 25/46/20 23/184/20 22/47/20
f 18/49/21 22/185/21 83/186/21
f 22/185/21 23/187/21 58/188/21
f 57/189/21 22/185/21 58/188/21
f 57/189/21 60/190/21 56/191/21
f 51/192/21 52/193/21 45/194/21
f 57/189/21 56/191/21 51/192/21
f 22/185/21 57/189/21 51/192/21
f 144/195/81 19/196/81 141/197/81
f 19/196/21 18/49/21 141/197/21
f 133/198/21 136/199/21 18/49/21
f 136/199/21 141/197/21 18/49/21
f 22/185/21 51/192/21 45/194/21
f 30/200/21 22/185/21 38/201/21
f 45/194/82 42/202/82 22/185/82
f 42/202/83 43/203/83 38/201/83
f 43/203/21 40/204/21 38/201/21
f 38/201/21 39/205/21 30/200/21
f 39/205/21 31/206/21 30/200/21
f 132/207/21 139/208/21 18/49/21
f 139/208/21 138/209/21 18/49/21
f 138/209/21 133/198/21 18/49/21
f 42/202/21 38/201/21 22/185/21
f 30/200/21 34/210/21 98/211/21
f 95/212/21 96/213/21 86/214/21
f 96/213/21 90/215/21 86/214/21
f 86/214/21 90/215/21 89/216/21
f 30/200/84 98/211/84 95/212/84
f 125/217/21 131/218/21 18/49/21
f 131/218/21 132/207/21 18/49/21
f 127/219/21 129/220/21 113/221/21
f 129/220/21 125/217/21 113/221/21
f 113/221/85 115/222/85 127/219/85
f 124/223/21 121/224/21 122/225/21
f 121/224/21 119/226/21 122/225/21
f 119/226/21 113/221/21 18/49/21
f 122/225/21 119/226/21 18/49/21
f 67/227/81 123/228/81 122/225/81
f 113/221/21 125/217/21 18/49/21
f 22/185/21 30/200/21 95/212/21
f 86/214/21 22/185/21 95/212/21
f 89/216/21 87/229/21 86/214/21
f 67/227/21 122/225/21 68/230/21
f 68/230/21 122/225/21 18/49/21
f 68/230/21 66/231/21 67/227/21
f 22/185/21 86/214/21 83/186/21
f 69/232/86 68/230/86 85/51/86
f 68/230/21 18/49/21 85/51/21
f 18/49/21 83/186/21 84/50/21
f 70/233/21 69/232/21 85/51/21
f 78/234/21 74/235/21 85/51/21
f 74/235/21 70/233/21 85/51/21
f 85/51/21 77/236/21 78/234/21
f 24/52/22 22/237/22 18/53/22
f 25/238/23 48/239/23 54/55/23
f 48/239/23 46/240/23 50/241/23
f 54/55/23 48/239/23 49/56/23
f 46/240/23 45/242/23 52/243/23
f 46/240/23 52/243/23 50/241/23
f 59/244/23 58/245/23 61/246/23
f 58/245/23 23/247/23 61/246/23
f 50/241/23 49/56/23 48/239/23
f 53/248/23 56/249/23 60/250/23
f 49/56/23 53/248/23 55/57/23
f 61/246/23 23/247/23 25/238/23
f 54/55/23 61/246/23 25/238/23
f 53/248/23 60/250/23 55/57/23
f 83/58/87 8/4/87 9/7/87
f 5/25/88 6/20/88 101/69/88
f 111/71/89 16/33/89 17/72/89
f 53/14/90 2/13/90 51/74/90
f 34/251/91 30/102/91 33/80/91
f 30/102/92 3/79/92 33/80/92
f 33/80/93 4/3/93 36/19/93
f 3/79/36 32/101/36 39/82/36
f 74/94/94 75/105/94 73/148/94
f 75/105/94 76/104/94 73/148/94
f 73/148/94 11/26/94 74/94/94
f 15/37/95 16/33/95 111/71/95
f 122/95/96 17/72/96 112/96/96
f 2/13/97 50/64/97 52/98/97
f 45/100/47 46/86/47 47/85/47
f 47/85/47 44/146/47 42/99/47
f 32/101/48 3/79/48 30/102/48
f 78/252/49 77/109/49 75/105/49
f 77/109/49 10/9/49 75/105/49
f 10/9/98 79/8/98 76/104/98
f 84/59/99 9/7/99 10/9/99
f 58/108/23 59/116/23 55/60/23
f 59/116/100 1/16/100 55/60/100
f 55/60/101 60/253/101 57/107/101
f 14/39/53 65/84/53 67/110/53
f 69/112/102 12/32/102 13/29/102
f 7/77/103 8/4/103 83/58/103
f 68/113/104 13/29/104 14/39/104
f 11/26/105 12/32/105 69/112/105
f 110/73/60 17/72/60 122/95/60
f 98/254/23 34/255/23 26/256/23
f 34/255/23 33/257/23 35/258/23
f 26/256/23 34/255/23 27/259/23
f 35/258/23 27/259/23 34/255/23
f 26/256/23 29/260/23 101/261/23
f 97/123/23 98/254/23 99/124/23
f 90/262/23 96/263/23 92/264/23
f 96/263/23 97/123/23 94/265/23
f 92/264/23 96/263/23 94/265/23
f 91/266/23 88/267/23 90/262/23
f 103/268/23 94/265/23 100/125/23
f 100/125/23 94/265/23 97/123/23
f 92/264/23 91/266/23 90/262/23
f 98/254/23 26/256/23 99/124/23
f 26/256/23 101/261/23 99/124/23
f 100/125/23 102/269/23 103/268/23
f 63/270/23 64/271/23 72/272/23
f 64/271/23 71/273/23 72/272/23
f 105/274/23 104/275/23 123/276/23
f 104/275/23 111/277/23 123/276/23
f 111/277/23 110/278/23 123/276/23
f 62/130/23 63/270/23 72/272/23
f 105/274/23 123/276/23 67/279/23
f 105/274/23 67/279/23 65/129/23
f 62/130/23 72/272/23 106/131/23
f 105/274/23 65/129/23 106/131/23
f 121/280/23 124/281/23 120/133/23
f 124/281/23 112/134/23 120/133/23
f 112/134/23 108/282/23 118/132/23
f 137/141/23 134/283/23 21/142/23
